# Object Export From Tinkercad Server 2015

mtllib obj.mtl

o obj_0
v 0.316 		-0.33 		0.576
v 0.317 		-0.33 		0.577
v 1.611 		-0.191 		0.253
v 0.316 		-0.33 		0.577
v 0.311 		-0.33 		0.579
v 1.548 		-0.169 		0.246
v 0.912 		-0.173 		0.234
v 0.278 		-0.33 		0.569
v 0.28 		-0.33 		0.518
v 0.327 		-0.241 		0.182
v 0.302 		-0.33 		0.547
v 0.928 		-0.166 		0.232
v -1.231 		-0.283 		0.34
v -0.11 		0.207 		0.303
v -0.089 		0.207 		0.288
v 1.548 		-0.184 		0.241
v -0.531 		-0.159 		0.596
v -0.531 		-0.17 		0.597
v 0.265 		-0.138 		0.16
v 0.036 		-0.33 		0.643
v 0.002 		-0.33 		0.646
v 0.944 		-0.159 		0.236
v 0.912 		-0.157 		0.241
v 0.215 		-0.33 		0.562
v 0.354 		-0.067 		0.409
v 0.188 		-0.33 		0.568
v 0.13 		-0.33 		0.601
v 0.1 		-0.33 		0.62
v 0.302 		-0.315 		0.122
v 0.344 		-0.315 		0.169
v 0.379 		-0.315 		0.222
v 0.069 		-0.33 		0.634
v -0.128 		0.207 		0.32
v 0.325 		-0.002 		0.411
v 1.358 		-0.276 		0.533
v 0.251 		-0.33 		0.564
v 1.534 		-0.311 		0.649
v -0.208 		0.161 		0.372
v 1.35 		-0.32 		0.648
v 0.259 		-0.33 		0.488
v 0.268 		-0.33 		0.503
v 0.346 		-0.067 		0.512
v -0.562 		-0.153 		0.593
v 0.318 		-0.002 		0.505
v 1.35 		-0.317 		0.649
v -1.358 		-0.237 		0.45
v -0.531 		-0.157 		0.594
v 0.213 		-0.33 		0.395
v 0.226 		-0.002 		0.2
v 0.246 		-0.33 		0.465
v -0.196 		0.161 		0.343
v 0.354 		-0.067 		0.461
v 0.246 		-0.067 		0.179
v 0.325 		-0.002 		0.458
v -1.358 		-0.19 		0.441
v 0.233 		-0.33 		0.436
v 0.06 		-0.33 		0.393
v 1.534 		-0.309 		0.65
v -0.155 		0.207 		0.362
v 0.189 		-0.002 		0.17
v 0.071 		-0.33 		0.416
v 0.848 		-0.156 		0.253
v -1.358 		-0.169 		0.495
v -1.295 		-0.178 		0.468
v 0.074 		-0.33 		0.435
v 0.206 		-0.067 		0.146
v 0.848 		-0.167 		0.237
v 0.069 		-0.33 		0.46
v 0.848 		-0.172 		0.237
v 0.848 		-0.164 		0.238
v 0.057 		-0.33 		0.482
v 0.88 		-0.163 		0.236
v -0.139 		0.161 		0.268
v 0.031 		-0.33 		0.501
v -1.485 		-0.219 		0.499
v 1.485 		-0.247 		0.533
v -1.485 		-0.235 		0.444
v 0.848 		-0.181 		0.248
v 1.358 		-0.251 		0.535
v 0.152 		-0.33 		0.288
v 0.173 		-0.33 		0.314
v 0.19 		-0.33 		0.344
v 0.204 		-0.33 		0.375
v -0.594 		-0.163 		0.605
v 0.019 		-0.33 		0.364
v -0.594 		-0.168 		0.606
v 0.149 		-0.002 		0.145
v -0.161 		0.161 		0.29
v -0.594 		-0.159 		0.603
v 0.042 		-0.33 		0.374
v 0.396 		-0.187 		0.475
v 0.126 		-0.33 		0.265
v 0.032 		-0.33 		0.226
v 0.065 		-0.33 		0.234
v 0.391 		-0.167 		0.453
v 0.097 		-0.33 		0.247
v 1.231 		-0.283 		0.53
v -0.181 		0.161 		0.315
v -0.032 		-0.33 		0.643
v 1.248 		-0.324 		0.645
v -0.065 		-0.33 		0.635
v -0.097 		-0.33 		0.622
v -0.126 		-0.33 		0.604
v -0.152 		-0.33 		0.581
v -0.173 		-0.33 		0.555
v -0.19 		-0.33 		0.525
v -1.485 		-0.191 		0.442
v -1.485 		-0.18 		0.468
v -0.042 		-0.33 		0.495
v -0.019 		-0.33 		0.506
v -0.06 		-0.33 		0.477
v -1.485 		-0.172 		0.494
v -0.073 		-0.33 		0.448
v 0.115 		-0.067 		0.099
v -0.594 		-0.152 		0.593
v -0.625 		-0.154 		0.599
v -0.143 		0.207 		0.34
v 0.162 		-0.067 		0.119
v 0.416 		-0.198 		0.462
v -0.073 		-0.33 		0.422
v 0.105 		-0.002 		0.127
v -0.069 		-0.33 		0.409
v 1.248 		-0.322 		0.646
v -0.057 		-0.33 		0.387
v 0.407 		-0.217 		0.492
v 0.065 		-0.067 		0.086
v -0.201 		-0.33 		0.502
v 0.059 		-0.002 		0.114
v -0.213 		-0.33 		0.475
v -0.246 		-0.33 		0.405
v 0.816 		-0.159 		0.245
v -0.222 		-0.33 		0.455
v -0.23 		-0.33 		0.44
v 0.399 		-0.21 		0.5
v -0.246 		0.11 		0.361
v 1.115 		-0.323 		0.64
v -0.031 		-0.33 		0.368
v 0.784 		-0.174 		0.244
v 1.231 		-0.255 		0.535
v 0.013 		-0.067 		0.08
v -0.233 		0.11 		0.325
v 0.012 		-0.002 		0.109
v -1.358 		-0.251 		0.335
v -0.178 		-0.33 		0.297
v -0.13 		-0.33 		0.269
v -1.485 		-0.247 		0.336
v -0.209 		-0.33 		0.306
v -0.594 		-0.173 		0.605
v -0.251 		-0.33 		0.306
v -0.594 		-0.182 		0.597
v 0.401 		-0.193 		0.468
v 1.115 		-0.325 		0.639
v -0.191 		0.11 		0.263
v -0.594 		-0.175 		0.603
v -0.244 		0.056 		0.273
v -0.214 		0.11 		0.293
v -0.257 		-0.33 		0.384
v -0.28 		-0.33 		0.351
v -0.26 		-0.33 		0.379
v -1.358 		-0.276 		0.336
v 0.469 		-0.2 		0.454
v -0.302 		-0.33 		0.322
v 0.222 		-0.138 		0.124
v 1.485 		-0.191 		0.427
v 1.485 		-0.18 		0.402
v -0.317 		-0.33 		0.292
v -0.316 		-0.33 		0.293
v -0.316 		-0.33 		0.292
v 1.295 		-0.178 		0.402
v -0.311 		-0.33 		0.291
v 0.189 		-0.241 		0.067
v 0.657 		-0.166 		0.255
v -0.1 		-0.33 		0.249
v -0.069 		-0.33 		0.235
v -0.036 		-0.33 		0.227
v -0.002 		-0.33 		0.224
v 0.721 		-0.16 		0.253
v 2.324 		-0.274 		0.554
v 0.175 		-0.138 		0.095
v 0.123 		-0.138 		0.073
v 0.075 		-0.241 		0.028
v 0.069 		-0.138 		0.059
v -1.248 		-0.324 		0.224
v -1.35 		-0.32 		0.221
v 2.35 		-0.271 		0.542
v 1.485 		-0.235 		0.425
v 2.317 		-0.274 		0.556
v -0.29 		0.056 		0.477
v 0.721 		-0.173 		0.249
v -0.293 		0.056 		0.435
v -0.594 		-0.236 		0.519
v -1.534 		-0.311 		0.221
v 0.721 		-0.163 		0.249
v 0.721 		-0.164 		0.249
v 2.369 		-0.268 		0.528
v -0.531 		-0.147 		0.571
v -1.115 		-0.325 		0.231
v 0.014 		-0.138 		0.053
v -0.257 		0.11 		0.435
v 1.358 		-0.237 		0.42
v 0.469 		-0.216 		0.474
v -0.531 		-0.155 		0.524
v 0.721 		-0.167 		0.248
v -0.594 		-0.16 		0.523
v 2.311 		-0.273 		0.557
v -1.35 		-0.317 		0.22
v 0.721 		-0.166 		0.248
v 2.344 		-0.27 		0.546
v 2.377 		-0.261 		0.521
v 1.358 		-0.19 		0.428
v -1.115 		-0.323 		0.23
v 0.412 		-0.219 		0.489
v -1.248 		-0.322 		0.223
v 0.097 		-0.315 		0.247
v 2.325 		-0.272 		0.553
v 0.065 		-0.315 		0.234
v -0.281 		0.056 		0.35
v -0.29 		0.056 		0.392
v 0.032 		-0.315 		0.226
v 0.016 		-0.315 		0
v 0.079 		-0.315 		0.007
v 0.14 		-0.315 		0.023
v 0.199 		-0.315 		0.048
v 0.253 		-0.315 		0.081
v -0.594 		-0.153 		0.56
v 1.485 		-0.219 		0.37
v 0.469 		-0.247 		0.509
v 0.721 		-0.172 		0.249
v -1.534 		-0.309 		0.22
v 1.485 		-0.203 		0.315
v 2.06 		-0.287 		0.6
v -0.594 		-0.208 		0.563
v 2.226 		-0.269 		0.54
v -0.265 		0.056 		0.31
v 0.469 		-0.185 		0.432
v -0.024 		0.161 		0.65
v 0.274 		0.056 		0.539
v 1.485 		-0.163 		0.272
v 2.226 		-0.279 		0.572
v 1.422 		-0.164 		0.348
v 0.468 		-0.16 		0.384
v 0.256 		0.056 		0.578
v 1.485 		-0.172 		0.376
v -0.055 		0.161 		0.645
v 2.226 		-0.277 		0.573
v -1.611 		-0.191 		0.616
v 2.06 		-0.285 		0.6
v 1.485 		-0.163 		0.323
v -1.548 		-0.184 		0.628
v 0.394 		-0.153 		0.401
v -0.024 		0.161 		0.219
v 0.405 		-0.164 		0.415
v -0.657 		-0.161 		0.612
v -0.055 		0.161 		0.225
v -0.657 		-0.166 		0.614
v 1.358 		-0.201 		0.308
v -0.657 		-0.153 		0.593
v 0.388 		-0.155 		0.423
v 0.393 		-0.16 		0.42
v -0.085 		0.161 		0.235
v -1.611 		-0.172 		0.62
v 0.04 		0.161 		0.648
v -0.028 		0.11 		0.69
v 0.402 		-0.178 		0.443
v 0.407 		-0.169 		0.423
v 0.008 		0.161 		0.652
v -0.065 		0.11 		0.684
v 0.07 		0.161 		0.64
v -1.611 		-0.173 		0.622
v 0.397 		-0.175 		0.446
v -0.113 		0.161 		0.249
v -0.074 		0.056 		0.718
v 1.358 		-0.169 		0.375
v -0.032 		0.056 		0.726
v 1.358 		-0.158 		0.32
v 2.06 		-0.286 		0.6
v -0.657 		-0.174 		0.612
v -0.115 		0.056 		0.705
v -0.1 		0.11 		0.671
v -0.032 		0.056 		0.143
v 2.408 		-0.253 		0.457
v 0.15 		0.11 		0.644
v 0.134 		0.056 		0.696
v -0.028 		0.11 		0.179
v 2.39 		-0.256 		0.504
v 2.4 		-0.249 		0.485
v 0.171 		0.056 		0.673
v 2.407 		-0.243 		0.466
v 0.384 		-0.146 		0.406
v -0.074 		0.056 		0.151
v 1.104 		-0.246 		0.406
v -1.736 		-0.189 		0.617
v -0.721 		-0.155 		0.604
v -0.721 		-0.157 		0.613
v 0.204 		0.056 		0.646
v 1.231 		-0.241 		0.413
v -1.736 		-0.187 		0.617
v -0.065 		0.11 		0.186
v -0.153 		0.056 		0.685
v -0.134 		0.11 		0.654
v -0.721 		-0.188 		0.603
v 1.231 		-0.191 		0.429
v -0.72 		-0.173 		0.62
v 2.409 		-0.246 		0.426
v -1.736 		-0.186 		0.617
v 2.403 		-0.239 		0.396
v -0.115 		0.056 		0.165
v -1.737 		-0.18 		0.614
v 2.409 		-0.228 		0.424
v 2.405 		-0.22 		0.403
v 0.407 		-0.18 		0.441
v -0.187 		0.056 		0.66
v -0.1 		0.11 		0.198
v -0.721 		-0.167 		0.621
v 2.401 		-0.216 		0.391
v 0.01 		0.11 		0.692
v 0.047 		0.11 		0.688
v 2.41 		-0.235 		0.445
v 0.083 		0.11 		0.678
v -1.737 		-0.176 		0.584
v 0.118 		0.11 		0.664
v 1.231 		-0.2 		0.301
v -0.72 		-0.172 		0.621
v -0.153 		0.056 		0.184
v -0.019 		0.207 		0.605
v -0.134 		0.11 		0.215
v 0.011 		0.056 		0.728
v 1.231 		-0.159 		0.346
v 0.053 		0.056 		0.723
v -0.187 		0.056 		0.209
v -0.164 		0.11 		0.237
v 1.231 		-0.154 		0.318
v 0.095 		0.056 		0.712
v -1.737 		-0.177 		0.516
v 1.231 		-0.152 		0.291
v -0.043 		0.207 		0.601
v -0.657 		-0.194 		0.589
v -0.085 		0.161 		0.634
v -0.067 		0.207 		0.593
v -1.862 		-0.199 		0.602
v -0.218 		0.056 		0.239
v -0.721 		-0.158 		0.554
v 0.381 		-0.138 		0.407
v 1.04 		-0.158 		0.334
v -0.113 		0.161 		0.62
v 1.104 		-0.168 		0.375
v -0.089 		0.207 		0.581
v 0.382 		-0.14 		0.41
v 0.151 		0.161 		0.591
v -0.721 		-0.163 		0.528
v 0.381 		-0.138 		0.463
v -1.862 		-0.186 		0.603
v 2.382 		-0.231 		0.36
v 2.394 		-0.213 		0.378
v 2.387 		-0.211 		0.367
v 2.385 		-0.211 		0.363
v -0.022 		0.251 		0.554
v 0.203 		0.161 		0.512
v 1.104 		-0.152 		0.265
v 0.15 		0.207 		0.519
v -0.657 		-0.207 		0.57
v -0.721 		-0.233 		0.527
v 2.371 		-0.21 		0.348
v -0.055 		0.251 		0.542
v -0.057 		-0.315 		0.482
v -0.069 		-0.315 		0.46
v -0.073 		-0.315 		0.441
v -0.073 		-0.315 		0.422
v -0.064 		-0.315 		0.398
v 0.189 		0.161 		0.541
v 0 		-0.315 		0.509
v -0.013 		-0.315 		0.507
v 1.04 		-0.153 		0.293
v -0.037 		-0.315 		0.499
v 0.368 		-0.121 		0.358
v 0.368 		-0.126 		0.343
v -0.11 		0.207 		0.567
v -1.987 		-0.199 		0.593
v -0.084 		0.251 		0.522
v -1.987 		-0.198 		0.593
v -1.008 		-0.165 		0.641
v 0.346 		-0.067 		0.358
v -0.128 		0.207 		0.549
v 2.353 		-0.225 		0.335
v 1.104 		-0.155 		0.318
v 0.172 		0.161 		0.567
v -1.987 		-0.191 		0.584
v 2.338 		-0.223 		0.327
v -1.008 		-0.169 		0.641
v -1.987 		-0.192 		0.589
v 0.359 		-0.117 		0.328
v 0.136 		0.207 		0.54
v -0.976 		-0.169 		0.64
v 2.334 		-0.222 		0.325
v -0.196 		0.161 		0.527
v -0.25 		-0.315 		0.426
v -1.987 		-0.196 		0.592
v -0.139 		0.161 		0.601
v -0.236 		-0.315 		0.447
v -0.784 		-0.155 		0.609
v -0.784 		-0.158 		0.62
v 0.357 		-0.118 		0.32
v -0.223 		-0.315 		0.467
v -0.212 		-0.315 		0.485
v 0.318 		-0.002 		0.364
v 2.331 		-0.221 		0.324
v -1.987 		-0.193 		0.59
v 1.104 		-0.202 		0.293
v 2.322 		-0.219 		0.321
v 0.031 		0.207 		0.604
v -0.161 		0.161 		0.579
v 0.056 		0.207 		0.597
v 0.079 		0.207 		0.588
v -0.784 		-0.174 		0.626
v -0.181 		0.161 		0.554
v 0.006 		0.207 		0.606
v -0.143 		0.207 		0.529
v -1.987 		-0.188 		0.565
v 2.367 		-0.227 		0.345
v 0.099 		0.161 		0.628
v 0.356 		-0.128 		0.304
v -1.988 		-0.187 		0.52
v 0.126 		0.161 		0.611
v 1.485 		-0.167 		0.239
v -0.233 		0.11 		0.544
v -0.848 		-0.158 		0.625
v 1.485 		-0.173 		0.235
v 0 		-0.315 		0.361
v -0.047 		-0.315 		0.378
v -0.025 		-0.315 		0.365
v -0.013 		-0.315 		0.362
v 1.485 		-0.185 		0.244
v -0.848 		-0.156 		0.617
v 0.309 		-0.067 		0.261
v 1.485 		-0.179 		0.236
v -0.164 		0.11 		0.632
v -1.737 		-0.221 		0.489
v -0.129 		-0.315 		0.268
v -0.193 		-0.315 		0.308
v -0.212 		-0.315 		0.313
v -0.228 		-0.315 		0.315
v -0.218 		0.056 		0.63
v -0.191 		0.11 		0.606
v 2.318 		-0.218 		0.32
v 2.32 		-0.213 		0.32
v -1.737 		-0.234 		0.439
v 0.331 		-0.067 		0.308
v 2.325 		-0.212 		0.322
v 2.335 		-0.211 		0.325
v 2.329 		-0.212 		0.323
v 0.353 		-0.124 		0.304
v 0.031 		0.251 		0.552
v -0.253 		-0.324 		0.309
v 0.063 		0.251 		0.538
v -1.737 		-0.247 		0.388
v 2.34 		-0.211 		0.327
v -0.88 		-0.164 		0.634
v -0.848 		-0.166 		0.632
v 1.485 		-0.176 		0.235
v 0.09 		0.251 		0.515
v -0.244 		0.056 		0.597
v -0.149 		-0.315 		0.284
v -0.177 		-0.315 		0.301
v 0.1 		0.207 		0.574
v -0.896 		-0.161 		0.632
v -0.214 		0.11 		0.577
v 0.119 		0.207 		0.558
v -1.737 		-0.195 		0.446
v -0.848 		-0.172 		0.632
v -0.848 		-0.168 		0.633
v -0.355 		-0.067 		0.435
v 0.304 		-0.002 		0.318
v 0.284 		-0.002 		0.275
v -0.351 		-0.067 		0.486
v -0.368 		-0.122 		0.512
v -1.737 		-0.187 		0.469
v 2.353 		-0.211 		0.335
v -0.322 		-0.002 		0.482
v -0.325 		-0.002 		0.435
v 1.421 		-0.172 		0.232
v -0.848 		-0.181 		0.621
v 1.421 		-0.18 		0.237
v 0.356 		-0.124 		0.312
v -0.322 		-0.002 		0.387
v 0.179 		0.11 		0.62
v -0.281 		0.056 		0.519
v 1.421 		-0.178 		0.234
v -1.611 		-0.244 		0.339
v 0.24 		0.11 		0.527
v -1.737 		-0.242 		0.345
v -0.784 		-0.206 		0.579
v -0.265 		0.056 		0.559
v 0.224 		0.11 		0.561
v -0.38 		-0.138 		0.49
v 0.405 		-0.14 		0.349
v 0.393 		-0.144 		0.373
v -0.848 		-0.205 		0.581
v -0.382 		-0.142 		0.46
v 0.405 		-0.147 		0.375
v -1.611 		-0.266 		0.334
v 0.386 		-0.142 		0.376
v -0.848 		-0.16 		0.54
v 0.232 		0.056 		0.614
v -0.09 		-0.067 		0.778
v 0.204 		0.11 		0.592
v -0.039 		-0.067 		0.787
v -0.848 		-0.156 		0.567
v 1.358 		-0.184 		0.253
v -1.988 		-0.238 		0.439
v 1.358 		-0.165 		0.23
v 1.358 		-0.162 		0.233
v -0.375 		-0.129 		0.485
v -0.149 		-0.138 		0.786
v 1.358 		-0.171 		0.23
v -0.096 		-0.138 		0.804
v 1.358 		-0.158 		0.255
v 1.358 		-0.159 		0.237
v -0.944 		-0.164 		0.638
v -0.042 		-0.138 		0.814
v -1.988 		-0.19 		0.492
v 0.327 		-0.241 		0.688
v 0.468 		-0.212 		0.324
v 0.265 		-0.138 		0.709
v -1.988 		-0.194 		0.473
v -0.912 		-0.157 		0.628
v -0.162 		-0.241 		0.815
v -1.988 		-0.201 		0.454
v -0.393 		-0.153 		0.468
v -0.468 		-0.16 		0.485
v -0.405 		-0.164 		0.454
v 0.302 		-0.138 		0.668
v -0.045 		-0.241 		0.846
v 0.404 		-0.214 		0.326
v 0.419 		-0.207 		0.324
v -0.912 		-0.166 		0.637
v 0.281 		-0.067 		0.652
v 0.408 		-0.232 		0.34
v 0.395 		-0.225 		0.321
v -1.863 		-0.24 		0.354
v -0.92 		-0.163 		0.635
v -0.912 		-0.174 		0.634
v -0.393 		-0.16 		0.449
v -0.047 		-0.315 		0.867
v -0.11 		-0.315 		0.855
v -0.17 		-0.315 		0.835
v -0.226 		-0.315 		0.806
v -0.912 		-0.171 		0.636
v 0.331 		-0.067 		0.561
v 1.327 		-0.175 		0.232
v -1.863 		-0.261 		0.342
v -1.988 		-0.26 		0.35
v 1.295 		-0.177 		0.237
v -0.127 		-0.002 		0.734
v 0.304 		-0.002 		0.551
v -0.082 		-0.002 		0.75
v 1.295 		-0.173 		0.23
v -0.035 		-0.002 		0.758
v 0.284 		-0.002 		0.594
v 0.309 		-0.067 		0.608
v 1.295 		-0.163 		0.228
v -0.393 		-0.144 		0.496
v 0.258 		-0.002 		0.634
v 0.417 		-0.254 		0.363
v -1.988 		-0.274 		0.305
v 0.404 		-0.238 		0.336
v -0.169 		-0.002 		0.713
v 0.425 		-0.248 		0.513
v -0.976 		-0.157 		0.632
v -0.185 		-0.067 		0.738
v -0.139 		-0.067 		0.761
v 0.402 		-0.247 		0.33
v -0.405 		-0.147 		0.495
v -0.208 		-0.002 		0.685
v -0.227 		-0.067 		0.707
v 0.386 		-0.241 		0.582
v -0.439 		-0.24 		0.505
v -1.707 		-0.303 		0.229
v -0.976 		-0.155 		0.629
v 0.403 		-0.238 		0.526
v -1.873 		-0.296 		0.244
v -0.976 		-0.155 		0.624
v -0.976 		-0.153 		0.6
v -0.417 		-0.254 		0.506
v -0.431 		-0.242 		0.503
v 1.231 		-0.16 		0.228
v 1.216 		-0.166 		0.227
v 0.431 		-0.242 		0.366
v 1.231 		-0.168 		0.227
v 0.439 		-0.24 		0.365
v -1.873 		-0.293 		0.244
v -0.423 		-0.247 		0.504
v 0.423 		-0.247 		0.366
v 1.247 		-0.166 		0.227
v 0.428 		-0.22 		0.339
v 1.231 		-0.175 		0.234
v -1.612 		-0.305 		0.222
v -1.707 		-0.301 		0.228
v 1.279 		-0.167 		0.228
v -0.242 		-0.002 		0.652
v -0.976 		-0.181 		0.626
v -0.976 		-0.174 		0.637
v 1.231 		-0.172 		0.23
v 0.361 		-0.241 		0.637
v 2.314 		-0.214 		0.319
v 0.372 		-0.138 		0.518
v 1.231 		-0.156 		0.232
v 0.419 		-0.223 		0.341
v 0.356 		-0.138 		0.571
v -2.112 		-0.212 		0.573
v -0.199 		-0.138 		0.76
v -0.407 		-0.169 		0.446
v -0.244 		-0.138 		0.728
v -2.169 		-0.213 		0.568
v -0.387 		-0.153 		0.444
v -0.396 		-0.175 		0.423
v -2.112 		-0.207 		0.578
v -0.976 		-0.172 		0.639
v 2.395 		-0.261 		0.496
v 0.333 		-0.138 		0.621
v 1.231 		-0.154 		0.238
v -0.391 		-0.168 		0.416
v 1.231 		-0.154 		0.235
v -0.032 		-0.315 		0.643
v 0.468 		-0.175 		0.286
v 0.468 		-0.164 		0.282
v 2.226 		-0.233 		0.465
v -0.173 		-0.315 		0.555
v -0.191 		-0.315 		0.523
v -0.152 		-0.315 		0.581
v -0.126 		-0.315 		0.604
v 0.468 		-0.144 		0.296
v -0.097 		-0.315 		0.622
v 2.226 		-0.248 		0.453
v -0.065 		-0.315 		0.635
v -0.395 		-0.186 		0.394
v -0.278 		-0.315 		0.769
v 0.344 		-0.315 		0.701
v 0.379 		-0.315 		0.648
v -0.318 		-0.138 		0.645
v 0.302 		-0.315 		0.748
v -0.976 		-0.163 		0.52
v 0.468 		-0.143 		0.302
v 0.468 		-0.142 		0.305
v -0.976 		-0.228 		0.528
v -0.264 		-0.067 		0.671
v -0.284 		-0.138 		0.689
v 0.499 		-0.327 		0.594
v 1.168 		-0.161 		0.227
v -0.469 		-0.185 		0.437
v 0.499 		-0.329 		0.593
v -2.225 		-0.218 		0.558
v 1.168 		-0.174 		0.232
v -0.407 		-0.18 		0.428
v 1.2 		-0.169 		0.227
v -0.264 		-0.241 		0.753
v 1.184 		-0.164 		0.226
v 0.468 		-0.183 		0.292
v -2.225 		-0.221 		0.543
v 2.226 		-0.21 		0.407
v -0.402 		-0.179 		0.426
v 1.152 		-0.17 		0.227
v 2.226 		-0.205 		0.39
v -2.225 		-0.217 		0.559
v 0.499 		-0.146 		0.316
v -0.595 		-0.213 		0.411
v -2.225 		-0.216 		0.561
v 0.418 		-0.315 		0.579
v 0.415 		-0.315 		0.581
v 0.412 		-0.315 		0.584
v 0.408 		-0.315 		0.589
v 0.427 		-0.315 		0.577
v -0.416 		-0.198 		0.407
v 0.404 		-0.315 		0.596
v -0.532 		-0.185 		0.449
v 0.404 		-0.301 		0.584
v 1.104 		-0.168 		0.227
v 1.104 		-0.173 		0.229
v -0.469 		-0.2 		0.415
v -2.225 		-0.207 		0.562
v -0.321 		-0.067 		0.585
v -2.225 		-0.208 		0.563
v -2.225 		-0.201 		0.543
v -0.595 		-0.179 		0.472
v 1.104 		-0.155 		0.234
v -2.225 		-0.2 		0.522
v 1.104 		-0.156 		0.233
v -2.225 		-0.204 		0.557
v -0.296 		-0.067 		0.63
v -0.271 		-0.002 		0.614
v -0.469 		-0.216 		0.396
v -0.312 		-0.002 		0.341
v 0.453 		-0.315 		0.514
v 2.113 		-0.239 		0.493
v 0.456 		-0.315 		0.517
v -0.369 		-0.128 		0.528
v 0.468 		-0.161 		0.282
v -0.339 		-0.067 		0.537
v -0.312 		-0.002 		0.528
v -0.351 		-0.067 		0.383
v 1.104 		-0.175 		0.232
v -0.339 		-0.067 		0.332
v 0.47 		-0.323 		0.549
v 1.136 		-0.174 		0.231
v -0.362 		-0.126 		0.55
v -0.356 		-0.117 		0.55
v -0.321 		-0.067 		0.284
v -0.722 		-0.209 		0.423
v 0.469 		-0.276 		0.54
v 0.47 		-0.302 		0.568
v -0.295 		-0.002 		0.296
v -0.364 		-0.124 		0.54
v 0.388 		-0.179 		0.299
v -0.722 		-0.194 		0.448
v 0.395 		-0.171 		0.296
v 1.136 		-0.163 		0.227
v -0.722 		-0.182 		0.474
v 0.47 		-0.327 		0.57
v -0.295 		-0.002 		0.573
v 0.384 		-0.172 		0.296
v -0.721 		-0.171 		0.501
v 0.405 		-0.167 		0.293
v 0.405 		-0.269 		0.553
v -0.377 		-0.138 		0.379
v -0.377 		-0.166 		0.576
v 1.072 		-0.169 		0.227
v 1.072 		-0.161 		0.229
v -0.374 		-0.241 		0.259
v 0.428 		-0.311 		0.574
v 0.405 		-0.142 		0.301
v 1.04 		-0.157 		0.233
v 0.422 		-0.278 		0.544
v -0.365 		-0.138 		0.325
v 0.41 		-0.274 		0.548
v -0.596 		-0.245 		0.369
v 1.04 		-0.166 		0.228
v -0.371 		-0.161 		0.576
v 0.418 		-0.263 		0.53
v -0.722 		-0.284 		0.414
v 0.405 		-0.146 		0.297
v -0.595 		-0.263 		0.468
v 0.405 		-0.149 		0.295
v 1.04 		-0.174 		0.231
v -0.345 		-0.138 		0.273
v 0.407 		-0.187 		0.307
v -0.722 		-0.259 		0.472
v -0.364 		-0.171 		0.584
v 1.04 		-0.171 		0.229
v -0.363 		-0.153 		0.577
v -0.425 		-0.249 		0.356
v -0.723 		-0.319 		0.303
v 2.226 		-0.202 		0.322
v -0.723 		-0.272 		0.331
v 0.977 		-0.262 		0.537
v -0.396 		-0.241 		0.315
v 2.226 		-0.201 		0.326
v -0.407 		-0.243 		0.349
v -0.373 		-0.182 		0.577
v 2.226 		-0.2 		0.363
v 0.906 		-0.327 		0.625
v 0.85 		-0.316 		0.573
v 2.226 		-0.2 		0.351
v 0.337 		-0.33 		0.579
v -0.407 		-0.218 		0.378
v 2.226 		-0.228 		0.357
v -0.4 		-0.211 		0.37
v -0.723 		-0.325 		0.257
v 2.226 		-0.22 		0.32
v -0.374 		-0.241 		0.61
v -0.596 		-0.302 		0.296
v 0.977 		-0.312 		0.579
v -0.596 		-0.275 		0.33
v 0.395 		-0.193 		0.309
v 0.388 		-0.199 		0.307
v -0.469 		-0.247 		0.361
v 0.977 		-0.294 		0.521
v -0.723 		-0.328 		0.258
v -0.345 		-0.138 		0.597
v 0.906 		-0.324 		0.626
v 0.316 		-0.328 		0.579
v -2.353 		-0.211 		0.535
v -0.356 		-0.155 		0.587
v 0.386 		-0.241 		0.287
v -2.338 		-0.211 		0.543
v 0.317 		-0.328 		0.579
v -0.278 		-0.315 		0.391
v -0.27 		-0.315 		0.399
v -0.361 		-0.172 		0.59
v 0.723 		-0.319 		0.567
v 0.723 		-0.272 		0.539
v -0.261 		-0.319 		0.402
v -0.262 		-0.315 		0.409
v 0.322 		-0.315 		0.569
v 0.365 		-0.315 		0.513
v -0.43 		-0.315 		0.498
v 0.371 		-0.13 		0.328
v 0.38 		-0.133 		0.326
v -0.448 		-0.258 		0.476
v -0.44 		-0.26 		0.475
v -0.849 		-0.203 		0.431
v -0.977 		-0.197 		0.436
v 0.723 		-0.325 		0.613
v 0.596 		-0.302 		0.574
v -0.43 		-0.267 		0.476
v 2.226 		-0.204 		0.31
v 2.226 		-0.206 		0.308
v 2.226 		-0.208 		0.307
v 2.226 		-0.204 		0.311
v 0.596 		-0.275 		0.539
v -0.368 		-0.129 		0.544
v 0.383 		-0.134 		0.336
v 0.373 		-0.131 		0.34
v -0.377 		-0.133 		0.55
v 0.723 		-0.328 		0.611
v 0.375 		-0.132 		0.353
v 2.226 		-0.211 		0.306
v -0.977 		-0.183 		0.463
v 0.376 		-0.132 		0.382
v 2.226 		-0.212 		0.307
v 0.319 		-0.322 		0.535
v -0.423 		-0.28 		0.482
v 0.316 		-0.316 		0.514
v 2.226 		-0.21 		0.306
v 0.312 		-0.323 		0.535
v -0.849 		-0.172 		0.499
v -0.423 		-0.285 		0.485
v -0.369 		-0.143 		0.568
v -0.377 		-0.149 		0.571
v -0.413 		-0.264 		0.512
v 0.849 		-0.203 		0.439
v 0.977 		-0.197 		0.433
v -0.363 		-0.14 		0.568
v -0.469 		-0.267 		0.462
v -0.371 		-0.137 		0.561
v -0.849 		-0.256 		0.472
v 0.382 		-0.136 		0.35
v 0.013 		-0.067 		0.789
v -0.439 		-0.315 		0.397
v 0.065 		-0.067 		0.784
v -0.977 		-0.262 		0.333
v -0.435 		-0.315 		0.431
v -0.436 		-0.315 		0.411
v 0.115 		-0.067 		0.77
v -0.447 		-0.282 		0.436
v -0.85 		-0.316 		0.296
v -0.442 		-0.302 		0.408
v 0.977 		-0.183 		0.406
v -0.446 		-0.278 		0.445
v -0.977 		-0.312 		0.291
v -0.353 		-0.129 		0.571
v 0.366 		-0.129 		0.319
v -0.358 		-0.131 		0.564
v -0.363 		-0.134 		0.562
v -0.977 		-0.294 		0.348
v 0.014 		-0.138 		0.816
v 0.069 		-0.138 		0.81
v 2.112 		-0.208 		0.292
v -2.327 		-0.221 		0.547
v 0.376 		-0.134 		0.313
v 2.169 		-0.213 		0.302
v -0.435 		-0.293 		0.439
v 2.112 		-0.209 		0.293
v 0.123 		-0.138 		0.796
v 0.849 		-0.256 		0.397
v -2.318 		-0.219 		0.549
v 0.175 		-0.138 		0.774
v 2.112 		-0.212 		0.296
v -0.433 		-0.298 		0.442
v -2.317 		-0.218 		0.55
v -0.906 		-0.327 		0.244
v 0.353 		-0.13 		0.297
v -0.353 		-0.133 		0.575
v 0.976 		-0.153 		0.269
v 0.075 		-0.241 		0.842
v -2.318 		-0.218 		0.55
v -0.433 		-0.308 		0.446
v -0.906 		-0.324 		0.243
v 0.241 		-0.241 		0.771
v -2.341 		-0.223 		0.541
v -0.44 		-0.306 		0.409
v 0.976 		-0.163 		0.35
v -1.072 		-0.169 		0.642
v -1.104 		-0.173 		0.64
v -0.379 		-0.133 		0.544
v -2.335 		-0.222 		0.544
v 0.976 		-0.228 		0.342
v 0.381 		-0.153 		0.297
v -1.104 		-0.165 		0.643
v -2.331 		-0.221 		0.546
v 0.359 		-0.143 		0.295
v 0.362 		-0.147 		0.295
v -0.374 		-0.132 		0.516
v 0.359 		-0.163 		0.281
v -1.12 		-0.17 		0.642
v 0.253 		-0.315 		0.788
v 0.199 		-0.315 		0.822
v 0.14 		-0.315 		0.846
v 0.079 		-0.315 		0.862
v 0.016 		-0.315 		0.869
v 0.353 		-0.138 		0.29
v -0.383 		-0.134 		0.534
v -1.072 		-0.161 		0.641
v -0.382 		-0.136 		0.519
v -1.136 		-0.163 		0.643
v 0.149 		-0.002 		0.724
v 0.378 		-0.154 		0.296
v -0.451 		-0.296 		0.406
v 0.189 		-0.002 		0.699
v 0.849 		-0.172 		0.37
v 0.372 		-0.137 		0.308
v -2.314 		-0.214 		0.551
v -0.469 		-0.29 		0.414
v 0.226 		-0.002 		0.669
v 0.162 		-0.067 		0.75
v 0.206 		-0.067 		0.723
v -0.384 		-0.159 		0.574
v -0.373 		-0.156 		0.574
v 0.369 		-0.143 		0.301
v 0.849 		-0.16 		0.329
v 0.246 		-0.067 		0.69
v -1.216 		-0.163 		0.643
v -1.216 		-0.169 		0.642
v -1.2 		-0.166 		0.643
v -2.317 		-0.213 		0.55
v -1.16 		-0.169 		0.643
v -2.32 		-0.213 		0.549
v -0.316 		-0.315 		0.359
v -1.168 		-0.173 		0.64
v -2.323 		-0.212 		0.548
v 0.784 		-0.155 		0.26
v 0.372 		-0.15 		0.298
v -2.333 		-0.211 		0.545
v -2.326 		-0.212 		0.547
v 0.848 		-0.156 		0.302
v -0.29 		-0.315 		0.381
v -0.288 		-0.319 		0.372
v -2.334 		-0.211 		0.544
v -1.184 		-0.164 		0.643
v -0.377 		-0.172 		0.575
v 2.226 		-0.261 		0.507
v 0.369 		-0.154 		0.295
v -0.319 		-0.322 		0.334
v 0.784 		-0.206 		0.291
v -0.316 		-0.316 		0.355
v -0.376 		-0.188 		0.575
v 0.012 		-0.002 		0.76
v 0.371 		-0.161 		0.293
v -1.168 		-0.161 		0.642
v -0.312 		-0.323 		0.335
v 0.059 		-0.002 		0.755
v 0.105 		-0.002 		0.743
v 1.873 		-0.296 		0.625
v 0.848 		-0.205 		0.289
v 0.362 		-0.132 		0.309
v 1.988 		-0.26 		0.519
v -1.279 		-0.165 		0.642
v -1.263 		-0.166 		0.642
v -0.317 		-0.315 		0.358
v -0.316 		-0.315 		0.358
v -0.381 		-0.21 		0.571
v 0.222 		-0.138 		0.745
v -1.231 		-0.166 		0.643
v 0.596 		-0.245 		0.501
v 0.595 		-0.213 		0.458
v 0.722 		-0.209 		0.447
v 1.863 		-0.24 		0.516
v -0.365 		-0.315 		0.356
v 1.863 		-0.261 		0.527
v -0.436 		-0.154 		0.581
v 0.365 		-0.18 		0.282
v 0.002 		-0.315 		0.646
v 0.532 		-0.185 		0.42
v 1.988 		-0.274 		0.564
v 0.036 		-0.315 		0.643
v 0.069 		-0.315 		0.634
v 0.377 		-0.172 		0.294
v 0.381 		-0.158 		0.295
v 0.1 		-0.315 		0.62
v -1.04 		-0.157 		0.636
v 1.873 		-0.293 		0.626
v -0.468 		-0.175 		0.584
v -0.32 		-0.315 		0.3
v -0.269 		-0.315 		0.312
v -0.316 		-0.328 		0.291
v -0.468 		-0.164 		0.588
v 0.233 		-0.315 		0.554
v -0.317 		-0.328 		0.291
v 0.129 		-0.315 		0.601
v 0.189 		-0.315 		0.563
v 0.207 		-0.315 		0.557
v 1.611 		-0.266 		0.535
v -0.405 		-0.167 		0.577
v 1.707 		-0.303 		0.641
v 0.595 		-0.179 		0.398
v 0.174 		-0.315 		0.57
v 0.38 		-0.177 		0.296
v -0.405 		-0.162 		0.577
v -1.04 		-0.153 		0.576
v 0.722 		-0.182 		0.395
v 0.159 		-0.315 		0.578
v 1.612 		-0.305 		0.647
v 1.707 		-0.301 		0.642
v -0.468 		-0.183 		0.577
v 0.369 		-0.187 		0.284
v -0.317 		-0.329 		0.291
v -0.316 		-0.329 		0.291
v 0.257 		0.11 		0.416
v -1.04 		-0.174 		0.638
v 0.376 		-0.188 		0.295
v 0.293 		0.056 		0.413
v 0.722 		-0.194 		0.421
v -0.337 		-0.33 		0.291
v 0.286 		0.056 		0.498
v 1.611 		-0.244 		0.53
v 1.737 		-0.242 		0.524
v -1.104 		-0.155 		0.636
v -1.104 		-0.157 		0.638
v -1.104 		-0.152 		0.604
v 0.293 		0.056 		0.456
v -0.337 		-0.328 		0.29
v -0.405 		-0.142 		0.568
v -0.405 		-0.144 		0.571
v 0.721 		-0.171 		0.368
v 0.257 		0.11 		0.453
v 1.988 		-0.201 		0.415
v -1.136 		-0.174 		0.638
v -0.387 		-0.163 		0.575
v 1.988 		-0.192 		0.387
v -0.445 		-0.315 		0.371
v 0.721 		-0.163 		0.341
v -0.443 		-0.315 		0.378
v -0.405 		-0.149 		0.574
v 0.274 		0.056 		0.33
v 0.286 		0.056 		0.371
v 0.256 		0.056 		0.291
v -0.41 		-0.274 		0.321
v -0.422 		-0.279 		0.326
v -0.418 		-0.263 		0.34
v 0.721 		-0.233 		0.342
v 0.721 		-0.155 		0.265
v -1.104 		-0.175 		0.637
v 0.383 		-0.205 		0.303
v 0.064 		0.292 		0.435
v 0 		0.33 		0.435
v 0.06 		0.292 		0.458
v 1.988 		-0.187 		0.34
v 0.051 		0.292 		0.474
v 0.038 		0.292 		0.487
v 0.381 		-0.21 		0.298
v 0.021 		0.292 		0.496
v -0.405 		-0.14 		0.52
v 0.721 		-0.158 		0.315
v -0.449 		-0.315 		0.362
v -0.451 		-0.315 		0.358
v -0.453 		-0.315 		0.355
v -0.456 		-0.315 		0.352
v -1.104 		-0.202 		0.576
v 0.002 		0.292 		0.499
v 0.372 		-0.194 		0.289
v -1.04 		-0.158 		0.535
v -0.469 		-0.309 		0.366
v -1.104 		-0.155 		0.551
v -2.375 		-0.229 		0.517
v 0.062 		0.292 		0.416
v 1.987 		-0.191 		0.284
v -2.371 		-0.21 		0.521
v -0.454 		-0.308 		0.376
v 1.987 		-0.188 		0.304
v 0.721 		-0.188 		0.266
v 0.449 		-0.315 		0.507
v 0.451 		-0.315 		0.511
v 0.056 		0.292 		0.403
v -0.388 		-0.179 		0.57
v -0.393 		-0.176 		0.571
v 1.987 		-0.191 		0.282
v 0.469 		-0.309 		0.503
v 0.657 		-0.16 		0.259
v 0.657 		-0.154 		0.268
v 0.045 		0.292 		0.388
v 0.657 		-0.154 		0.271
v -0.405 		-0.172 		0.575
v -0.462 		-0.306 		0.375
v 0.657 		-0.153 		0.277
v -0.4 		-0.19 		0.561
v -1.231 		-0.155 		0.636
v -0.47 		-0.323 		0.32
v 0.012 		0.292 		0.371
v 0.03 		0.292 		0.377
v 0.454 		-0.308 		0.494
v 1.987 		-0.205 		0.279
v -0.469 		-0.276 		0.329
v -2.225 		-0.239 		0.461
v 1.987 		-0.204 		0.279
v 1.987 		-0.202 		0.278
v -1.231 		-0.157 		0.639
v -2.225 		-0.2 		0.509
v 0.171 		0.207 		0.447
v -2.225 		-0.202 		0.493
v -1.231 		-0.154 		0.629
v 0.168 		0.207 		0.397
v -1.231 		-0.152 		0.591
v -2.225 		-0.204 		0.484
v -0.418 		-0.315 		0.29
v -0.415 		-0.315 		0.289
v 0.216 		0.161 		0.419
v 0.212 		0.161 		0.387
v -0.412 		-0.315 		0.286
v 0.459 		-0.294 		0.464
v 0.657 		-0.174 		0.257
v 1.987 		-0.196 		0.277
v 1.987 		-0.198 		0.277
v -2.225 		-0.211 		0.459
v -0.404 		-0.315 		0.274
v 0.451 		-0.296 		0.463
v -2.225 		-0.209 		0.465
v -1.168 		-0.174 		0.638
v 0.462 		-0.306 		0.494
v -0.428 		-0.312 		0.295
v -0.386 		-0.169 		0.574
v 0.212 		0.161 		0.482
v 0.161 		0.207 		0.496
v 0.469 		-0.29 		0.455
v 0.168 		0.207 		0.472
v 0.657 		-0.194 		0.281
v 1.987 		-0.193 		0.279
v 0.657 		-0.207 		0.3
v 0.216 		0.161 		0.451
v -0.468 		-0.144 		0.573
v 0.437 		-0.315 		0.458
v 0.439 		-0.315 		0.472
v 0.441 		-0.315 		0.483
v 0.443 		-0.315 		0.492
v 1.987 		-0.207 		0.283
v 0.446 		-0.315 		0.499
v -0.404 		-0.268 		0.315
v 0.594 		-0.236 		0.35
v 1.987 		-0.205 		0.28
v 0.12 		0.251 		0.452
v -1.231 		-0.2 		0.569
v -0.468 		-0.142 		0.565
v 0.531 		-0.155 		0.346
v 0.594 		-0.16 		0.347
v 0.121 		0.251 		0.426
v -0.499 		-0.146 		0.553
v -0.427 		-0.315 		0.292
v -1.231 		-0.159 		0.523
v 0.116 		0.251 		0.4
v -0.468 		-0.143 		0.567
v 0.446 		-0.3 		0.462
v 0.443 		-0.302 		0.461
v -1.231 		-0.154 		0.551
v 0.44 		-0.306 		0.46
v -2.225 		-0.243 		0.44
v 0.109 		0.251 		0.486
v -1.295 		-0.166 		0.642
v -0.47 		-0.302 		0.302
v -0.499 		-0.327 		0.276
v -1.358 		-0.167 		0.64
v 0.469 		-0.267 		0.408
v 0.448 		-0.258 		0.393
v -2.225 		-0.239 		0.389
v 0.251 		0.11 		0.491
v -1.295 		-0.162 		0.641
v 0.594 		-0.169 		0.263
v 0.594 		-0.166 		0.263
v -0.499 		-0.329 		0.277
v -0.427 		-0.22 		0.53
v -1.295 		-0.177 		0.633
v 0.435 		-0.315 		0.438
v 0.594 		-0.163 		0.264
v -0.418 		-0.223 		0.528
v 0.434 		-0.315 		0.403
v 0.594 		-0.154 		0.273
v -1.327 		-0.172 		0.639
v -0.404 		-0.214 		0.543
v 0.161 		0.207 		0.373
v 0.446 		-0.278 		0.425
v 0.203 		0.161 		0.357
v -0.47 		-0.327 		0.299
v 0.594 		-0.152 		0.277
v -1.295 		-0.173 		0.639
v 0.439 		-0.283 		0.424
v 0.441 		-0.26 		0.394
v -0.408 		-0.232 		0.53
v 0.15 		0.207 		0.351
v 0.431 		-0.267 		0.393
v 0.189 		0.161 		0.328
v -0.127 		-0.002 		0.135
v -2.113 		-0.239 		0.377
v -2.225 		-0.255 		0.348
v -0.185 		-0.067 		0.132
v 0.428 		-0.27 		0.392
v -0.169 		-0.002 		0.157
v -0.404 		-0.238 		0.533
v 0.136 		0.207 		0.33
v 1.862 		-0.2 		0.268
v 0.172 		0.161 		0.302
v -0.244 		-0.138 		0.141
v 0.441 		-0.287 		0.432
v 1.862 		-0.2 		0.269
v -0.396 		-0.241 		0.554
v -0.227 		-0.067 		0.162
v -0.398 		-0.219 		0.545
v -0.208 		-0.002 		0.184
v 0.594 		-0.153 		0.31
v 0.436 		-0.293 		0.43
v -0.393 		-0.232 		0.555
v -0.387 		-0.199 		0.562
v -2.06 		-0.287 		0.27
v 0.151 		0.161 		0.278
v -0.242 		-0.002 		0.217
v -1.358 		-0.156 		0.602
v 0.594 		-0.173 		0.265
v -1.358 		-0.159 		0.63
v 0.594 		-0.175 		0.266
v -1.358 		-0.184 		0.617
v -2.06 		-0.285 		0.269
v 0.431 		-0.296 		0.418
v -1.358 		-0.177 		0.635
v 0.594 		-0.159 		0.266
v 1.862 		-0.185 		0.27
v 0.594 		-0.182 		0.273
v -1.358 		-0.176 		0.637
v 0.101 		0.251 		0.368
v -2.06 		-0.286 		0.269
v -0.039 		-0.067 		0.082
v -0.035 		-0.002 		0.111
v 0.077 		0.251 		0.342
v -0.419 		-0.207 		0.545
v -1.358 		-0.16 		0.633
v 0.277 		-0.315 		0.478
v -2.225 		-0.279 		0.297
v -2.225 		-0.262 		0.358
v 0.316 		-0.315 		0.51
v 0.29 		-0.315 		0.489
v -1.358 		-0.162 		0.636
v -0.09 		-0.067 		0.091
v -2.225 		-0.259 		0.37
v 0.262 		-0.315 		0.461
v 0.261 		-0.319 		0.468
v 0.047 		0.251 		0.323
v -0.082 		-0.002 		0.12
v -0.468 		-0.212 		0.546
v -0.139 		-0.067 		0.108
v 0.119 		0.207 		0.311
v 0.317 		-0.315 		0.511
v -0.394 		-0.315 		0.619
v -0.416 		-0.315 		0.56
v -2.225 		-0.277 		0.297
v -0.324 		-0.315 		0.725
v -0.362 		-0.315 		0.675
v 0.531 		-0.157 		0.275
v 0.1 		0.207 		0.295
v 1.737 		-0.187 		0.4
v 0.316 		-0.315 		0.511
v 0.531 		-0.159 		0.274
v 1.737 		-0.195 		0.423
v 0.126 		0.161 		0.258
v -0.045 		-0.241 		0.023
v 0.406 		-0.315 		0.279
v 0.424 		-0.315 		0.34
v 1.737 		-0.247 		0.481
v -0.042 		-0.138 		0.055
v 0.531 		-0.163 		0.273
v 1.737 		-0.234 		0.431
v -1.358 		-0.201 		0.561
v 0.056 		0.207 		0.272
v 0.079 		0.207 		0.282
v -2.4 		-0.216 		0.48
v 0.424 		-0.287 		0.383
v 0.531 		-0.17 		0.273
v -2.394 		-0.213 		0.491
v -2.384 		-0.211 		0.507
v 0.415 		-0.259 		0.36
v 0.562 		-0.153 		0.276
v -0.096 		-0.138 		0.065
v -0.058 		0.292 		0.462
v -0.063 		0.292 		0.444
v -1.358 		-0.158 		0.55
v -0.149 		-0.138 		0.083
v -0.016 		0.292 		0.497
v 0.031 		0.207 		0.266
v -0.215 		-0.241 		0.081
v -0.199 		-0.138 		0.109
v 0.414 		-0.268 		0.355
v -0.033 		0.292 		0.49
v 0.013 		0.251 		0.315
v 1.737 		-0.221 		0.38
v 0.531 		-0.147 		0.298
v -0.048 		0.292 		0.478
v 0.006 		0.207 		0.263
v -0.061 		0.292 		0.416
v -2.392 		-0.234 		0.496
v -1.421 		-0.18 		0.633
v -2.403 		-0.239 		0.474
v 1.737 		-0.175 		0.33
v -2.408 		-0.243 		0.453
v -0.002 		-0.315 		0.224
v 0.223 		-0.315 		0.402
v 0.212 		-0.315 		0.385
v -0.036 		-0.315 		0.227
v -0.069 		-0.315 		0.235
v -0.1 		-0.315 		0.249
v 1.737 		-0.199 		0.276
v -1.421 		-0.177 		0.636
v -0.041 		0.292 		0.385
v 0.251 		-0.315 		0.446
v -0.226 		-0.315 		0.063
v -0.17 		-0.315 		0.034
v -0.11 		-0.315 		0.014
v -0.047 		-0.315 		0.002
v -0.054 		0.292 		0.399
v 0.251 		0.11 		0.379
v -1.421 		-0.174 		0.637
v 0.24 		0.11 		0.343
v 0.225 		-0.325 		0.416
v -0.007 		0.292 		0.371
v 0.224 		0.11 		0.309
v 0.594 		-0.208 		0.306
v -0.025 		0.292 		0.375
v -1.421 		-0.172 		0.637
v -2.409 		-0.228 		0.445
v -0.308 		-0.241 		0.159
v -2.41 		-0.235 		0.424
v 0.057 		-0.315 		0.387
v 0.064 		-0.315 		0.398
v 0.071 		-0.315 		0.416
v 0.073 		-0.315 		0.441
v 0.069 		-0.315 		0.46
v 0.064 		-0.315 		0.472
v 0.047 		-0.315 		0.491
v 0.025 		-0.315 		0.504
v 0.013 		-0.315 		0.507
v -0.318 		-0.138 		0.224
v -0.284 		-0.138 		0.18
v -0.264 		-0.067 		0.198
v -2.407 		-0.243 		0.404
v -0.118 		0.251 		0.461
v 0.204 		0.11 		0.277
v 0.722 		-0.284 		0.456
v -0.105 		0.251 		0.494
v 0.595 		-0.263 		0.401
v -2.4 		-0.249 		0.384
v -0.12 		0.251 		0.426
v -0.113 		0.251 		0.391
v 0.722 		-0.259 		0.397
v -1.485 		-0.163 		0.598
v -1.485 		-0.167 		0.631
v 0.173 		-0.315 		0.314
v -0.296 		-0.067 		0.239
v 0.191 		-0.319 		0.346
v -2.408 		-0.253 		0.412
v 0.152 		-0.315 		0.288
v 0.976 		-0.157 		0.237
v 1.737 		-0.189 		0.252
v 0.201 		-0.315 		0.365
v 0.976 		-0.156 		0.239
v -0.271 		-0.002 		0.255
v -1.485 		-0.183 		0.63
v 1.674 		-0.192 		0.253
v 0.07 		0.161 		0.229
v -1.485 		-0.185 		0.624
v 0.976 		-0.155 		0.242
v -0.164 		0.207 		0.484
v -0.155 		0.207 		0.508
v 1.737 		-0.187 		0.252
v 0.099 		0.161 		0.242
v 0.976 		-0.155 		0.245
v 1.737 		-0.186 		0.252
v -1.485 		-0.176 		0.634
v 0.126 		-0.315 		0.265
v -0.208 		0.161 		0.497
v -0.214 		0.161 		0.466
v 0.04 		0.161 		0.221
v 1.737 		-0.181 		0.254
v 0.013 		-0.315 		0.362
v 0.037 		-0.315 		0.371
v 0.976 		-0.181 		0.244
v -0.17 		0.207 		0.46
v -2.324 		-0.274 		0.316
v 1.008 		-0.17 		0.229
v 1.674 		-0.176 		0.252
v 0.976 		-0.175 		0.233
v 0.976 		-0.172 		0.231
v -0.394 		-0.315 		0.25
v -0.362 		-0.315 		0.195
v -0.324 		-0.315 		0.144
v -0.278 		-0.315 		0.1
v 0.976 		-0.165 		0.23
v 0.008 		0.161 		0.218
v 1.008 		-0.165 		0.229
v 0.333 		-0.138 		0.248
v -2.395 		-0.261 		0.373
v -2.384 		-0.265 		0.356
v 0.302 		-0.138 		0.201
v -2.344 		-0.272 		0.324
v -2.317 		-0.274 		0.314
v 0.361 		-0.241 		0.232
v 0.232 		0.056 		0.255
v -2.311 		-0.273 		0.312
v -2.352 		-0.268 		0.328
v -0.217 		0.161 		0.435
v 0.179 		0.11 		0.249
v -2.328 		-0.272 		0.317
v 1.611 		-0.186 		0.244
v -2.363 		-0.266 		0.335
v -2.374 		-0.262 		0.345
v 0.204 		0.056 		0.224
v 0.15 		0.11 		0.225
v 0.258 		-0.002 		0.236
v 0.281 		-0.067 		0.218
v -0.172 		0.207 		0.435
v 0.171 		0.056 		0.196
v -0.17 		0.207 		0.41
v -0.164 		0.207 		0.385
v -1.485 		-0.203 		0.554
v -0.214 		0.161 		0.403
v 0.134 		0.056 		0.174
v -1.422 		-0.164 		0.521
v -1.485 		-0.163 		0.547
v 0.912 		-0.166 		0.233
v -0.254 		0.11 		0.472
v 0.095 		0.056 		0.157
v 0.912 		-0.164 		0.234
v 0.083 		0.11 		0.191
v 0.118 		0.11 		0.206
v -1.104 		-0.246 		0.463
v -0.246 		0.11 		0.509
v -1.231 		-0.241 		0.456
v -0.254 		0.11 		0.397
v 0.053 		0.056 		0.146
v 0.047 		0.11 		0.182
v -1.231 		-0.191 		0.441
v -1.104 		-0.168 		0.495
v -0.039 		0.251 		0.32
v -1.231 		-0.255 		0.334
v 0.011 		0.056 		0.142
v -0.07 		0.251 		0.336
v 0.01 		0.11 		0.178
v -0.096 		0.251 		0.361
v -0.019 		0.207 		0.264
v -0.043 		0.207 		0.268
v -0.067 		0.207 		0.277
# 1442 vertices

g group_0_11909273

usemtl color_11909273
s 0

f 8 	11 	5
f 11 	8 	9
f 1 	5 	11
f 2 	4 	1
f 4 	5 	1
f 18 	86 	148
f 28 	32 	74
f 14 	1437 	15
f 150 	1002 	18
f 31 	1348 	30
f 20 	21 	74
f 10 	30 	29
f 27 	28 	74
f 32 	20 	74
f 154 	150 	18
f 33 	1437 	14
f 148 	154 	18
f 980 	18 	1002
f 10 	31 	30
f 8 	36 	9
f 24 	41 	36
f 37 	39 	35
f 39 	100 	35
f 23 	1362 	22
f 45 	39 	37
f 38 	51 	135
f 52 	44 	42
f 38 	59 	51
f 52 	54 	44
f 45 	123 	39
f 50 	26 	68
f 24 	26 	50
f 50 	40 	24
f 40 	41 	24
f 9 	36 	41
f 108 	55 	107
f 63 	64 	55
f 53 	66 	60
f 25 	34 	54
f 25 	54 	52
f 57 	82 	61
f 82 	83 	61
f 1414 	59 	38
f 1009 	1018 	34
f 45 	37 	58
f 65 	61 	48
f 53 	60 	49
f 48 	56 	65
f 68 	65 	56
f 56 	50 	68
f 73 	14 	15
f 17 	47 	43
f 70 	72 	67
f 88 	14 	73
f 71 	68 	26
f 46 	75 	77
f 53 	19 	66
f 79 	76 	210
f 82 	57 	81
f 48 	61 	83
f 17 	84 	18
f 18 	84 	86
f 88 	33 	14
f 69 	78 	138
f 45 	58 	76
f 89 	253 	84
f 45 	76 	79
f 57 	90 	80
f 80 	81 	57
f 92 	80 	90
f 96 	92 	90
f 90 	85 	96
f 96 	85 	94
f 87 	60 	66
f 91 	270 	95
f 102 	103 	109
f 109 	110 	102
f 103 	104 	109
f 111 	109 	104
f 105 	111 	104
f 106 	111 	105
f 127 	113 	106
f 101 	102 	110
f 74 	71 	27
f 108 	63 	55
f 110 	74 	21
f 108 	1418 	63
f 100 	39 	123
f 72 	70 	62
f 98 	33 	88
f 21 	99 	110
f 99 	101 	110
f 35 	100 	97
f 117 	33 	98
f 70 	131 	62
f 118 	179 	114
f 111 	106 	113
f 1418 	108 	112
f 87 	118 	121
f 72 	62 	23
f 87 	66 	118
f 23 	1423 	72
f 127 	129 	113
f 114 	121 	118
f 51 	59 	117
f 26 	27 	71
f 146 	107 	55
f 129 	132 	120
f 126 	128 	114
f 112 	108 	476
f 51 	117 	98
f 107 	476 	108
f 131 	177 	929
f 130 	157 	122
f 128 	121 	114
f 132 	133 	120
f 133 	130 	120
f 122 	120 	130
f 120 	113 	129
f 89 	43 	115
f 468 	476 	107
f 123 	45 	79
f 135 	217 	218
f 115 	116 	89
f 173 	137 	145
f 135 	218 	1429
f 134 	125 	151
f 136 	123 	139
f 124 	145 	137
f 174 	175 	137
f 173 	174 	137
f 142 	128 	126
f 79 	139 	123
f 139 	753 	136
f 147 	144 	122
f 140 	142 	126
f 143 	146 	55
f 51 	141 	135
f 151 	270 	91
f 153 	88 	73
f 122 	144 	124
f 145 	124 	144
f 159 	147 	157
f 122 	157 	147
f 207 	131 	70
f 131 	194 	193
f 155 	156 	153
f 97 	100 	152
f 131 	207 	194
f 134 	151 	91
f 183 	13 	160
f 158 	149 	159
f 89 	84 	43
f 152 	100 	136
f 123 	136 	100
f 160 	13 	46
f 19 	163 	66
f 149 	147 	159
f 29 	224 	163
f 43 	84 	17
f 88 	156 	98
f 160 	46 	77
f 168 	170 	167
f 166 	168 	167
f 162 	167 	170
f 149 	162 	170
f 149 	158 	162
f 255 	148 	86
f 156 	88 	153
f 85 	137 	176
f 176 	93 	85
f 94 	85 	93
f 175 	176 	137
f 179 	171 	180
f 180 	114 	179
f 181 	182 	180
f 171 	181 	180
f 1253 	165 	164
f 182 	126 	180
f 232 	150 	337
f 126 	114 	180
f 160 	184 	183
f 141 	98 	156
f 1002 	150 	232
f 125 	567 	212
f 141 	51 	98
f 140 	126 	182
f 179 	163 	171
f 1264 	1261 	186
f 125 	212 	151
f 193 	194 	172
f 185 	208 	178
f 163 	179 	118
f 737 	125 	722
f 208 	215 	178
f 160 	192 	184
f 115 	1127 	196
f 215 	205 	187
f 181 	198 	182
f 187 	178 	215
f 198 	140 	182
f 181 	1258 	198
f 183 	197 	13
f 119 	201 	161
f 172 	194 	207
f 184 	192 	206
f 118 	66 	163
f 203 	207 	70
f 1427 	1421 	188
f 119 	151 	212
f 222 	223 	214
f 223 	224 	214
f 203 	70 	67
f 79 	210 	302
f 214 	216 	222
f 219 	221 	216
f 96 	94 	216
f 96 	216 	214
f 125 	737 	567
f 210 	164 	165
f 273 	169 	210
f 94 	93 	219
f 94 	219 	216
f 217 	141 	234
f 177 	193 	172
f 212 	201 	119
f 184 	206 	213
f 217 	135 	141
f 222 	216 	221
f 29 	1370 	224
f 30 	1352 	29
f 1370 	214 	224
f 177 	131 	193
f 165 	273 	210
f 171 	224 	223
f 223 	222 	171
f 202 	225 	196
f 203 	172 	207
f 217 	484 	218
f 222 	181 	171
f 257 	115 	225
f 222 	221 	181
f 201 	212 	567
f 221 	220 	181
f 213 	211 	183
f 197 	183 	211
f 76 	164 	210
f 183 	184 	213
f 203 	67 	69
f 185 	195 	209
f 169 	302 	210
f 115 	196 	225
f 171 	163 	224
f 208 	185 	209
f 203 	69 	228
f 1429 	218 	190
f 186 	200 	226
f 229 	146 	206
f 69 	138 	228
f 202 	204 	225
f 228 	172 	203
f 199 	1429 	190
f 189 	172 	228
f 256 	230 	226
f 1287 	186 	226
f 138 	189 	228
f 185 	178 	633
f 577 	596 	192
f 596 	229 	192
f 191 	232 	361
f 206 	192 	229
f 233 	178 	239
f 206 	146 	143
f 1435 	211 	213
f 206 	143 	213
f 143 	1435 	213
f 231 	233 	239
f 243 	240 	165
f 238 	275 	240
f 141 	156 	234
f 234 	156 	155
f 240 	248 	238
f 247 	276 	245
f 244 	236 	325
f 693 	1024 	247
f 248 	240 	243
f 325 	336 	244
f 232 	337 	361
f 245 	205 	626
f 253 	86 	84
f 205 	215 	626
f 86 	253 	255
f 276 	239 	187
f 1440 	251 	254
f 245 	276 	205
f 257 	294 	116
f 205 	276 	187
f 250 	259 	252
f 187 	239 	178
f 326 	271 	313
f 482 	230 	256
f 264 	265 	259
f 236 	244 	267
f 115 	257 	116
f 226 	200 	256
f 265 	252 	259
f 267 	263 	236
f 270 	264 	259
f 204 	342 	257
f 267 	272 	263
f 271 	15 	260
f 236 	263 	266
f 257 	225 	204
f 272 	274 	263
f 979 	247 	965
f 317 	262 	266
f 73 	15 	271
f 273 	165 	240
f 270 	259 	258
f 151 	264 	270
f 247 	979 	276
f 267 	278 	272
f 258 	95 	270
f 276 	231 	239
f 276 	979 	231
f 267 	279 	278
f 148 	255 	277
f 275 	238 	516
f 267 	244 	279
f 301 	337 	277
f 286 	618 	281
f 240 	275 	273
f 150 	277 	337
f 553 	555 	272
f 280 	284 	1438
f 277 	150 	154
f 277 	154 	148
f 200 	186 	35
f 97 	200 	35
f 258 	348 	351
f 116 	294 	89
f 294 	257 	293
f 287 	295 	282
f 285 	618 	286
f 348 	258 	289
f 293 	400 	294
f 904 	283 	333
f 289 	258 	259
f 279 	299 	278
f 289 	259 	250
f 281 	318 	288
f 284 	290 	298
f 249 	297 	292
f 907 	283 	904
f 281 	288 	286
f 283 	907 	287
f 342 	293 	257
f 296 	256 	200
f 296 	200 	97
f 280 	290 	284
f 279 	300 	299
f 298 	251 	284
f 296 	322 	256
f 907 	912 	287
f 397 	292 	297
f 298 	254 	251
f 912 	295 	287
f 277 	303 	301
f 311 	235 	265
f 277 	255 	303
f 311 	119 	235
f 139 	830 	753
f 298 	290 	307
f 89 	294 	253
f 307 	313 	298
f 299 	312 	573
f 266 	263 	316
f 313 	260 	254
f 294 	314 	255
f 119 	311 	264
f 294 	255 	253
f 316 	317 	266
f 298 	313 	254
f 264 	311 	265
f 300 	312 	299
f 308 	305 	269
f 151 	119 	264
f 302 	169 	328
f 319 	268 	262
f 139 	79 	302
f 302 	830 	139
f 261 	334 	320
f 310 	306 	315
f 250 	252 	241
f 317 	319 	262
f 260 	313 	271
f 319 	321 	268
f 322 	296 	291
f 269 	261 	320
f 324 	326 	307
f 321 	420 	268
f 265 	241 	252
f 323 	255 	314
f 313 	307 	326
f 316 	274 	327
f 263 	274 	316
f 329 	317 	316
f 333 	317 	329
f 340 	437 	246
f 324 	1203 	330
f 319 	317 	333
f 265 	235 	241
f 330 	331 	326
f 327 	329 	316
f 255 	323 	303
f 271 	326 	331
f 283 	321 	319
f 325 	357 	336
f 330 	326 	324
f 279 	244 	338
f 301 	361 	337
f 331 	73 	271
f 336 	339 	338
f 283 	319 	333
f 334 	418 	320
f 283 	287 	321
f 169 	273 	328
f 339 	345 	338
f 273 	275 	328
f 287 	282 	321
f 275 	332 	328
f 119 	161 	235
f 301 	362 	361
f 336 	338 	244
f 335 	332 	275
f 274 	557 	327
f 246 	249 	340
f 357 	339 	336
f 949 	329 	327
f 340 	249 	292
f 338 	345 	279
f 300 	279 	345
f 25 	52 	343
f 339 	347 	345
f 348 	289 	343
f 331 	341 	153
f 339 	364 	347
f 73 	331 	153
f 950 	904 	333
f 302 	328 	346
f 134 	91 	605
f 306 	310 	309
f 341 	331 	330
f 91 	95 	605
f 328 	385 	346
f 306 	309 	304
f 342 	204 	350
f 318 	304 	309
f 328 	332 	385
f 605 	95 	351
f 318 	281 	304
f 297 	352 	397
f 341 	155 	153
f 344 	346 	385
f 817 	25 	343
f 282 	423 	420
f 305 	352 	297
f 351 	52 	42
f 390 	352 	387
f 95 	258 	351
f 352 	308 	387
f 308 	352 	305
f 351 	348 	52
f 502 	342 	350
f 353 	355 	354
f 357 	452 	1057
f 502 	507 	342
f 348 	343 	52
f 334 	422 	418
f 357 	364 	339
f 356 	353 	363
f 367 	372 	366
f 368 	372 	367
f 369 	372 	368
f 369 	429 	372
f 365 	366 	372
f 365 	372 	374
f 372 	371 	110
f 362 	191 	361
f 374 	372 	110
f 374 	110 	109
f 359 	1367 	373
f 358 	360 	370
f 365 	374 	109
f 347 	364 	377
f 365 	109 	111
f 364 	379 	377
f 366 	365 	111
f 354 	306 	353
f 616 	378 	380
f 366 	111 	113
f 1285 	379 	364
f 353 	356 	355
f 367 	366 	113
f 113 	120 	367
f 368 	367 	120
f 354 	315 	306
f 368 	120 	122
f 25 	375 	382
f 370 	386 	493
f 369 	368 	122
f 379 	383 	377
f 369 	122 	124
f 124 	429 	369
f 417 	383 	379
f 392 	370 	360
f 385 	373 	344
f 378 	340 	292
f 375 	376 	391
f 389 	381 	881
f 370 	392 	386
f 378 	292 	380
f 392 	360 	460
f 397 	380 	292
f 403 	1247 	399
f 393 	381 	389
f 332 	335 	385
f 382 	375 	391
f 359 	373 	385
f 398 	377 	411
f 609 	340 	378
f 401 	294 	400
f 386 	392 	467
f 404 	129 	127
f 335 	359 	385
f 347 	377 	398
f 382 	405 	25
f 386 	467 	349
f 322 	291 	408
f 342 	507 	400
f 345 	347 	398
f 403 	129 	404
f 342 	400 	293
f 34 	25 	405
f 303 	414 	301
f 269 	387 	308
f 383 	411 	377
f 405 	382 	472
f 352 	390 	407
f 401 	314 	294
f 382 	447 	472
f 132 	399 	133
f 700 	703 	408
f 269 	320 	387
f 403 	399 	132
f 382 	391 	447
f 407 	397 	352
f 133 	399 	396
f 129 	403 	132
f 262 	410 	416
f 130 	790 	157
f 395 	415 	417
f 416 	266 	262
f 133 	396 	130
f 97 	291 	296
f 262 	268 	410
f 268 	412 	410
f 420 	413 	412
f 97 	152 	291
f 420 	423 	413
f 411 	383 	415
f 268 	420 	412
f 383 	417 	415
f 323 	414 	303
f 430 	372 	429
f 431 	372 	430
f 428 	372 	431
f 464 	423 	349
f 230 	482 	432
f 401 	426 	458
f 429 	124 	137
f 349 	467 	464
f 430 	429 	137
f 419 	363 	353
f 416 	325 	236
f 433 	426 	401
f 435 	459 	16
f 419 	384 	363
f 416 	236 	266
f 85 	430 	137
f 312 	300 	436
f 400 	433 	401
f 432 	16 	3
f 387 	320 	418
f 345 	398 	436
f 357 	325 	416
f 435 	16 	432
f 1384 	1385 	981
f 440 	441 	1387
f 982 	981 	1386
f 440 	439 	147
f 345 	436 	300
f 850 	402 	391
f 77 	75 	437
f 850 	483 	402
f 436 	443 	442
f 463 	144 	439
f 487 	459 	435
f 147 	439 	144
f 485 	349 	423
f 441 	440 	147
f 507 	433 	400
f 402 	447 	391
f 447 	421 	451
f 1049 	452 	454
f 446 	77 	437
f 454 	1047 	1049
f 3 	230 	432
f 436 	442 	312
f 147 	149 	441
f 426 	457 	458
f 454 	460 	1047
f 446 	455 	77
f 149 	170 	453
f 443 	436 	398
f 441 	149 	453
f 398 	411 	443
f 452 	410 	412
f 438 	173 	145
f 412 	413 	452
f 413 	454 	452
f 1386 	1387 	441
f 441 	982 	1386
f 457 	426 	433
f 870 	434 	451
f 464 	454 	413
f 465 	457 	433
f 463 	462 	144
f 464 	467 	454
f 438 	145 	462
f 467 	460 	454
f 462 	145 	144
f 434 	447 	451
f 452 	416 	410
f 238 	6 	424
f 423 	464 	413
f 6 	1381 	424
f 470 	401 	458
f 314 	470 	469
f 512 	475 	474
f 314 	469 	323
f 415 	425 	466
f 424 	1381 	427
f 357 	416 	452
f 474 	478 	471
f 470 	457 	469
f 478 	479 	471
f 470 	314 	401
f 415 	395 	425
f 188 	190 	479
f 188 	479 	478
f 476 	334 	112
f 473 	447 	434
f 474 	698 	478
f 473 	472 	447
f 443 	466 	461
f 481 	414 	469
f 427 	480 	424
f 392 	460 	467
f 527 	476 	468
f 447 	402 	483
f 321 	282 	420
f 77 	455 	500
f 483 	421 	447
f 442 	443 	461
f 457 	481 	469
f 455 	577 	500
f 466 	411 	415
f 458 	457 	470
f 421 	483 	953
f 323 	469 	414
f 411 	466 	443
f 282 	485 	423
f 160 	77 	500
f 282 	295 	485
f 471 	484 	699
f 107 	488 	468
f 471 	479 	484
f 479 	190 	218
f 468 	488 	490
f 343 	501 	817
f 478 	486 	188
f 479 	218 	484
f 489 	237 	1012
f 1427 	188 	486
f 488 	107 	146
f 1140 	664 	241
f 435 	482 	487
f 370 	493 	489
f 414 	481 	491
f 414 	491 	301
f 425 	486 	492
f 482 	435 	432
f 486 	425 	1427
f 241 	495 	499
f 500 	192 	160
f 496 	241 	499
f 358 	370 	489
f 237 	493 	242
f 491 	481 	497
f 250 	496 	501
f 242 	505 	503
f 466 	425 	492
f 577 	455 	550
f 487 	480 	459
f 242 	493 	505
f 461 	466 	492
f 427 	459 	480
f 493 	237 	489
f 442 	461 	689
f 501 	343 	289
f 558 	242 	503
f 250 	501 	289
f 495 	496 	499
f 229 	488 	146
f 490 	488 	597
f 250 	241 	496
f 505 	493 	386
f 510 	511 	480
f 509 	446 	437
f 491 	362 	301
f 550 	446 	509
f 512 	494 	475
f 503 	505 	485
f 362 	491 	834
f 510 	480 	514
f 513 	515 	504
f 446 	550 	455
f 505 	349 	485
f 475 	494 	891
f 238 	424 	516
f 505 	386 	349
f 512 	498 	494
f 509 	437 	340
f 503 	485 	295
f 340 	609 	509
f 517 	516 	424
f 471 	498 	512
f 480 	511 	517
f 570 	513 	504
f 512 	474 	471
f 506 	504 	515
f 515 	519 	506
f 424 	480 	517
f 516 	335 	275
f 465 	433 	525
f 515 	513 	526
f 522 	1135 	589
f 532 	519 	515
f 487 	482 	508
f 528 	530 	529
f 515 	526 	532
f 482 	256 	508
f 494 	498 	528
f 535 	465 	525
f 526 	544 	532
f 537 	538 	533
f 465 	535 	547
f 498 	614 	542
f 854 	519 	532
f 758 	449 	450
f 542 	528 	498
f 535 	525 	540
f 480 	487 	514
f 539 	468 	490
f 531 	523 	521
f 772 	534 	533
f 539 	527 	468
f 544 	543 	532
f 406 	450 	449
f 476 	527 	524
f 546 	632 	545
f 636 	630 	546
f 544 	545 	634
f 520 	334 	476
f 406 	449 	394
f 528 	542 	530
f 476 	524 	520
f 541 	547 	601
f 520 	422 	334
f 545 	526 	546
f 42 	554 	548
f 42 	44 	554
f 384 	388 	456
f 611 	530 	542
f 545 	544 	526
f 487 	508 	549
f 388 	394 	449
f 541 	481 	457
f 551 	564 	550
f 532 	543 	898
f 449 	456 	388
f 498 	471 	614
f 457 	465 	541
f 272 	278 	553
f 554 	44 	237
f 607 	533 	534
f 555 	557 	274
f 547 	541 	465
f 237 	242 	554
f 550 	509 	551
f 274 	272 	555
f 554 	242 	558
f 535 	540 	547
f 518 	547 	540
f 558 	548 	554
f 525 	518 	540
f 552 	549 	256
f 533 	607 	537
f 558 	559 	548
f 549 	508 	256
f 514 	560 	510
f 570 	504 	555
f 611 	649 	529
f 1048 	538 	782
f 559 	558 	562
f 525 	582 	581
f 514 	556 	598
f 557 	555 	504
f 506 	557 	504
f 556 	487 	549
f 494 	528 	561
f 363 	477 	662
f 536 	559 	562
f 582 	525 	433
f 558 	503 	562
f 384 	456 	477
f 514 	598 	560
f 506 	945 	557
f 563 	565 	537
f 514 	487 	556
f 1273 	565 	563
f 528 	529 	561
f 566 	553 	278
f 562 	503 	295
f 278 	299 	566
f 569 	570 	566
f 566 	570 	553
f 1050 	529 	1143
f 529 	1050 	572
f 555 	553 	570
f 561 	529 	572
f 381 	518 	568
f 566 	573 	574
f 538 	537 	565
f 561 	572 	1050
f 538 	571 	782
f 448 	450 	406
f 571 	538 	565
f 448 	409 	445
f 560 	606 	517
f 409 	444 	445
f 511 	560 	517
f 125 	579 	722
f 550 	564 	580
f 511 	510 	560
f 579 	608 	575
f 580 	564 	1208
f 409 	448 	406
f 125 	134 	579
f 574 	569 	566
f 579 	134 	608
f 577 	550 	580
f 299 	573 	566
f 588 	586 	585
f 433 	507 	582
f 590 	1216 	539
f 580 	1208 	590
f 1224 	590 	1208
f 1216 	590 	1224
f 585 	593 	588
f 587 	594 	589
f 590 	597 	580
f 605 	608 	134
f 500 	577 	192
f 552 	595 	549
f 229 	596 	488
f 596 	597 	488
f 568 	518 	578
f 201 	567 	227
f 518 	525 	578
f 477 	363 	384
f 481 	541 	600
f 597 	577 	580
f 577 	597 	596
f 541 	601 	600
f 593 	598 	602
f 607 	534 	594
f 567 	708 	227
f 490 	597 	590
f 645 	574 	573
f 606 	560 	598
f 607 	594 	587
f 590 	539 	490
f 599 	312 	442
f 593 	602 	588
f 444 	818 	604
f 592 	1191 	563
f 599 	573 	312
f 576 	797 	584
f 606 	598 	593
f 576 	191 	797
f 445 	444 	604
f 442 	689 	599
f 1242 	191 	576
f 607 	587 	592
f 542 	660 	611
f 569 	612 	610
f 607 	592 	537
f 574 	612 	569
f 563 	537 	592
f 570 	569 	610
f 610 	513 	570
f 605 	42 	548
f 1007 	389 	881
f 605 	548 	608
f 594 	522 	589
f 389 	601 	617
f 605 	351 	42
f 610 	526 	513
f 559 	619 	608
f 606 	593 	585
f 594 	534 	522
f 655 	526 	610
f 389 	617 	393
f 660 	542 	615
f 534 	657 	522
f 185 	633 	195
f 621 	615 	614
f 601 	547 	617
f 587 	589 	1159
f 393 	617 	547
f 587 	1159 	1182
f 516 	620 	335
f 587 	1182 	592
f 548 	559 	608
f 630 	636 	629
f 898 	543 	970
f 418 	682 	687
f 603 	575 	619
f 99 	623 	634
f 209 	618 	285
f 209 	195 	618
f 99 	21 	623
f 381 	393 	518
f 648 	622 	606
f 614 	615 	542
f 603 	675 	575
f 208 	209 	626
f 636 	1249 	629
f 418 	687 	679
f 105 	627 	106
f 256 	322 	552
f 215 	208 	626
f 518 	393 	547
f 627 	1250 	628
f 209 	285 	626
f 627 	628 	106
f 679 	387 	418
f 600 	601 	389
f 619 	575 	608
f 322 	595 	552
f 105 	104 	629
f 105 	629 	627
f 285 	286 	626
f 418 	422 	682
f 389 	1007 	600
f 632 	546 	630
f 286 	288 	626
f 104 	103 	630
f 104 	630 	629
f 598 	556 	595
f 634 	545 	632
f 103 	102 	632
f 103 	632 	630
f 556 	549 	595
f 598 	595 	602
f 723 	621 	614
f 102 	101 	634
f 102 	634 	632
f 531 	521 	603
f 581 	578 	525
f 595 	586 	602
f 101 	99 	634
f 586 	588 	602
f 603 	619 	531
f 628 	1246 	404
f 628 	404 	127
f 595 	654 	586
f 536 	531 	619
f 628 	127 	106
f 595 	652 	654
f 619 	559 	536
f 481 	600 	644
f 281 	633 	304
f 629 	1249 	627
f 635 	660 	615
f 390 	387 	616
f 281 	618 	633
f 631 	739 	729
f 636 	546 	655
f 973 	974 	896
f 682 	422 	685
f 620 	517 	622
f 644 	497 	481
f 638 	521 	637
f 635 	723 	732
f 1095 	422 	520
f 422 	1095 	685
f 723 	635 	621
f 378 	616 	609
f 521 	877 	640
f 640 	637 	521
f 397 	616 	380
f 633 	618 	195
f 516 	517 	620
f 635 	732 	765
f 574 	645 	646
f 616 	407 	390
f 517 	606 	622
f 616 	397 	407
f 635 	615 	621
f 309 	310 	626
f 620 	359 	335
f 616 	613 	609
f 310 	315 	626
f 530 	611 	529
f 626 	318 	309
f 631 	729 	642
f 646 	612 	574
f 626 	315 	354
f 622 	648 	620
f 644 	834 	497
f 288 	318 	626
f 573 	599 	645
f 653 	649 	611
f 631 	642 	664
f 649 	653 	672
f 654 	656 	586
f 507 	641 	582
f 654 	652 	656
f 502 	641 	507
f 656 	585 	586
f 655 	612 	646
f 658 	613 	651
f 635 	672 	660
f 646 	1249 	655
f 655 	610 	612
f 660 	653 	611
f 661 	656 	652
f 613 	666 	663
f 652 	703 	661
f 664 	495 	241
f 652 	408 	703
f 408 	652 	322
f 669 	792 	668
f 673 	792 	670
f 669 	670 	792
f 652 	595 	322
f 419 	353 	633
f 667 	668 	792
f 671 	667 	792
f 306 	633 	353
f 661 	648 	656
f 672 	653 	660
f 646 	639 	1250
f 419 	633 	384
f 645 	639 	646
f 613 	663 	651
f 388 	384 	633
f 585 	656 	606
f 763 	672 	635
f 606 	656 	648
f 388 	633 	764
f 733 	722 	675
f 763 	635 	765
f 676 	661 	677
f 304 	633 	306
f 599 	688 	645
f 669 	668 	675
f 609 	613 	658
f 670 	669 	675
f 616 	387 	679
f 676 	715 	661
f 673 	670 	675
f 674 	678 	665
f 626 	354 	659
f 679 	681 	616
f 354 	355 	659
f 678 	674 	649
f 356 	659 	355
f 575 	675 	722
f 664 	1288 	631
f 356 	662 	659
f 678 	649 	672
f 603 	673 	675
f 649 	674 	529
f 603 	638 	673
f 665 	678 	690
f 684 	715 	686
f 688 	689 	680
f 202 	529 	674
f 687 	910 	679
f 643 	664 	642
f 683 	204 	674
f 672 	690 	678
f 684 	620 	648
f 639 	645 	688
f 728 	671 	647
f 730 	359 	684
f 672 	749 	690
f 599 	689 	688
f 204 	202 	674
f 626 	693 	245
f 247 	245 	693
f 484 	217 	691
f 1263 	625 	696
f 684 	359 	620
f 674 	665 	683
f 697 	474 	475
f 699 	484 	691
f 697 	698 	474
f 626 	659 	693
f 793 	692 	694
f 486 	478 	698
f 691 	701 	699
f 616 	666 	613
f 492 	486 	698
f 191 	362 	745
f 659 	662 	1024
f 695 	697 	475
f 702 	1075 	788
f 696 	741 	1251
f 1075 	702 	694
f 704 	851 	705
f 691 	710 	701
f 742 	677 	700
f 700 	677 	703
f 705 	711 	704
f 683 	713 	716
f 677 	661 	703
f 695 	711 	705
f 683 	665 	713
f 701 	710 	706
f 665 	707 	713
f 406 	394 	767
f 661 	715 	648
f 217 	234 	691
f 406 	767 	409
f 680 	697 	705
f 691 	234 	710
f 684 	648 	715
f 718 	698 	697
f 706 	710 	1357
f 702 	788 	650
f 719 	714 	712
f 676 	686 	715
f 718 	492 	698
f 650 	717 	702
f 706 	1357 	1349
f 718 	697 	680
f 680 	689 	718
f 350 	204 	720
f 689 	461 	718
f 445 	755 	448
f 461 	492 	718
f 448 	755 	450
f 710 	234 	155
f 204 	683 	720
f 683 	716 	720
f 445 	751 	755
f 697 	695 	705
f 614 	471 	723
f 721 	625 	624
f 733 	675 	668
f 677 	725 	676
f 471 	699 	723
f 684 	686 	726
f 686 	676 	726
f 726 	730 	684
f 643 	642 	729
f 728 	567 	731
f 676 	725 	726
f 733 	737 	722
f 685 	1095 	936
f 662 	477 	758
f 796 	643 	729
f 701 	732 	723
f 734 	752 	707
f 735 	730 	726
f 733 	728 	731
f 734 	707 	665
f 729 	886 	917
f 734 	665 	690
f 746 	736 	724
f 737 	731 	567
f 701 	706 	732
f 728 	733 	667
f 699 	701 	723
f 758 	477 	456
f 733 	668 	667
f 938 	757 	746
f 733 	731 	737
f 356 	363 	662
f 740 	745 	738
f 712 	714 	744
f 700 	885 	742
f 706 	743 	732
f 1380 	747 	742
f 747 	725 	742
f 677 	742 	725
f 450 	761 	758
f 743 	1333 	727
f 735 	726 	725
f 706 	1349 	743
f 191 	745 	740
f 742 	1377 	1380
f 739 	631 	741
f 722 	579 	575
f 1333 	743 	1349
f 735 	725 	747
f 736 	746 	748
f 886 	729 	739
f 728 	709 	708
f 728 	647 	709
f 885 	700 	408
f 495 	664 	643
f 727 	1134 	754
f 708 	567 	728
f 746 	781 	748
f 749 	672 	763
f 721 	624 	657
f 756 	749 	763
f 744 	714 	721
f 757 	944 	787
f 760 	759 	813
f 728 	667 	671
f 734 	771 	752
f 910 	868 	666
f 721 	657 	744
f 770 	152 	759
f 663 	857 	651
f 696 	625 	721
f 757 	787 	746
f 864 	663 	666
f 765 	756 	763
f 746 	787 	781
f 754 	756 	765
f 801 	759 	778
f 762 	717 	650
f 767 	764 	859
f 759 	801 	813
f 732 	754 	765
f 637 	792 	638
f 910 	666 	616
f 638 	603 	521
f 681 	910 	616
f 394 	388 	764
f 760 	770 	759
f 767 	394 	764
f 754 	743 	727
f 754 	732 	743
f 773 	772 	533
f 761 	450 	755
f 910 	681 	679
f 774 	771 	734
f 771 	1156 	769
f 923 	910 	687
f 773 	533 	538
f 687 	925 	923
f 734 	690 	774
f 775 	152 	770
f 762 	650 	647
f 775 	770 	760
f 680 	871 	777
f 1008 	773 	1041
f 291 	152 	775
f 749 	774 	690
f 136 	753 	778
f 456 	449 	758
f 772 	744 	534
f 778 	759 	152
f 778 	152 	136
f 712 	744 	772
f 772 	773 	712
f 776 	869 	766
f 5 	4 	779
f 671 	792 	784
f 1041 	773 	538
f 784 	647 	671
f 784 	762 	647
f 1041 	538 	1048
f 859 	409 	767
f 840 	934 	794
f 785 	786 	794
f 791 	794 	786
f 396 	794 	791
f 844 	776 	750
f 819 	762 	2
f 818 	444 	409
f 789 	778 	753
f 2 	762 	784
f 399 	1247 	396
f 750 	776 	1165
f 130 	791 	790
f 779 	4 	784
f 2 	784 	4
f 781 	639 	777
f 130 	396 	791
f 791 	786 	790
f 738 	844 	750
f 534 	744 	657
f 639 	688 	777
f 786 	785 	157
f 688 	680 	777
f 766 	752 	769
f 786 	157 	790
f 781 	787 	639
f 806 	805 	604
f 769 	752 	771
f 787 	944 	959
f 841 	966 	840
f 787 	768 	639
f 787 	959 	768
f 807 	445 	604
f 808 	227 	708
f 798 	584 	797
f 799 	839 	800
f 391 	795 	850
f 685 	936 	931
f 604 	804 	807
f 762 	819 	793
f 799 	752 	839
f 795 	376 	811
f 803 	591 	798
f 584 	798 	591
f 694 	762 	793
f 781 	777 	871
f 391 	376 	795
f 702 	762 	694
f 1250 	639 	768
f 673 	638 	792
f 647 	801 	802
f 807 	751 	445
f 708 	709 	808
f 717 	762 	702
f 799 	707 	752
f 985 	792 	637
f 647 	808 	709
f 704 	711 	809
f 804 	604 	805
f 5 	779 	792
f 932 	685 	931
f 784 	792 	779
f 985 	8 	792
f 802 	808 	647
f 799 	713 	707
f 8 	5 	792
f 799 	716 	713
f 809 	883 	812
f 802 	801 	789
f 695 	809 	711
f 799 	800 	816
f 376 	814 	811
f 802 	789 	808
f 583 	591 	803
f 818 	409 	859
f 789 	801 	778
f 647 	813 	801
f 800 	1433 	816
f 810 	795 	811
f 11 	9 	823
f 824 	641 	502
f 820 	867 	875
f 811 	814 	835
f 823 	821 	819
f 813 	647 	650
f 824 	816 	641
f 9 	821 	823
f 824 	799 	816
f 825 	820 	875
f 1 	11 	823
f 760 	813 	788
f 936 	1095 	783
f 799 	824 	716
f 650 	788 	813
f 793 	819 	821
f 825 	794 	828
f 824 	720 	716
f 828 	583 	820
f 822 	604 	815
f 821 	1245 	793
f 824 	350 	720
f 376 	375 	814
f 825 	828 	820
f 824 	502 	350
f 753 	830 	829
f 806 	604 	822
f 685 	932 	682
f 823 	819 	1
f 25 	817 	375
f 2 	1 	819
f 375 	817 	814
f 797 	191 	832
f 810 	643 	796
f 835 	810 	811
f 826 	831 	833
f 852 	833 	831
f 191 	740 	832
f 497 	834 	491
f 751 	1045 	755
f 704 	833 	852
f 501 	814 	817
f 1027 	662 	758
f 1030 	966 	837
f 501 	835 	814
f 810 	495 	643
f 758 	761 	1045
f 346 	846 	830
f 837 	966 	841
f 211 	1435 	839
f 830 	302 	346
f 835 	495 	810
f 796 	795 	810
f 829 	998 	1010
f 829 	908 	998
f 829 	830 	846
f 854 	836 	519
f 496 	495 	835
f 506 	519 	836
f 748 	831 	826
f 496 	835 	501
f 855 	838 	836
f 854 	855 	836
f 831 	871 	849
f 834 	738 	745
f 851 	831 	849
f 851 	849 	705
f 829 	846 	908
f 738 	834 	844
f 853 	844 	834
f 1426 	853 	644
f 1426 	197 	853
f 834 	644 	853
f 852 	831 	851
f 197 	848 	853
f 860 	843 	845
f 853 	848 	844
f 860 	847 	843
f 862 	838 	855
f 362 	834 	745
f 851 	704 	852
f 861 	818 	859
f 863 	885 	775
f 862 	842 	838
f 860 	845 	879
f 857 	663 	864
f 839 	752 	876
f 809 	833 	704
f 795 	796 	858
f 862 	865 	842
f 859 	866 	861
f 867 	860 	879
f 833 	809 	812
f 850 	795 	858
f 666 	868 	864
f 583 	803 	860
f 705 	849 	680
f 803 	847 	860
f 869 	776 	844
f 860 	820 	583
f 820 	860 	867
f 850 	953 	483
f 831 	748 	871
f 873 	854 	532
f 869 	848 	197
f 781 	871 	748
f 873 	855 	854
f 876 	869 	197
f 806 	822 	856
f 872 	373 	1367
f 862 	855 	873
f 451 	421 	870
f 876 	197 	211
f 849 	871 	680
f 848 	869 	844
f 532 	898 	873
f 62 	872 	23
f 857 	864 	874
f 839 	876 	211
f 862 	873 	896
f 899 	434 	870
f 752 	766 	876
f 868 	874 	864
f 846 	346 	344
f 766 	869 	876
f 840 	875 	867
f 729 	858 	796
f 895 	865 	862
f 846 	344 	880
f 879 	840 	867
f 909 	729 	917
f 877 	865 	895
f 885 	408 	291
f 881 	887 	882
f 651 	857 	888
f 845 	906 	837
f 695 	475 	891
f 889 	890 	892
f 925 	928 	857
f 887 	893 	882
f 874 	925 	857
f 970 	973 	898
f 623 	970 	543
f 543 	544 	623
f 634 	623 	544
f 896 	897 	973
f 974 	977 	895
f 899 	889 	892
f 845 	837 	879
f 658 	888 	884
f 885 	78 	7
f 840 	794 	875
f 885 	7 	1377
f 895 	862 	896
f 873 	898 	897
f 897 	896 	873
f 883 	809 	695
f 794 	825 	875
f 841 	840 	879
f 880 	344 	373
f 837 	841 	879
f 894 	877 	895
f 880 	373 	872
f 887 	881 	901
f 902 	891 	494
f 797 	832 	847
f 891 	902 	695
f 880 	872 	933
f 640 	877 	894
f 847 	798 	797
f 695 	902 	900
f 880 	933 	918
f 847 	803 	798
f 880 	918 	908
f 880 	908 	846
f 658 	651 	888
f 883 	695 	900
f 832 	740 	911
f 1093 	856 	1092
f 1093 	1110 	856
f 381 	901 	881
f 748 	826 	916
f 916 	736 	748
f 1110 	1109 	806
f 901 	381 	978
f 806 	856 	1110
f 904 	913 	914
f 827 	915 	916
f 904 	914 	907
f 907 	919 	912
f 919 	536 	912
f 916 	915 	724
f 887 	901 	1016
f 847 	832 	843
f 916 	724 	736
f 921 	922 	920
f 911 	906 	843
f 845 	843 	906
f 889 	953 	917
f 882 	893 	924
f 907 	914 	919
f 843 	832 	911
f 893 	903 	924
f 785 	794 	934
f 938 	746 	724
f 943 	948 	158
f 687 	928 	925
f 917 	886 	930
f 947 	937 	924
f 523 	919 	914
f 933 	62 	131
f 924 	903 	947
f 930 	886 	905
f 930 	905 	940
f 916 	826 	827
f 924 	937 	927
f 917 	890 	889
f 934 	935 	159
f 933 	872 	62
f 159 	935 	158
f 929 	933 	131
f 917 	930 	890
f 934 	159 	785
f 785 	159 	157
f 915 	827 	1031
f 531 	536 	919
f 158 	935 	926
f 178 	939 	633
f 523 	531 	919
f 1051 	933 	929
f 930 	940 	890
f 934 	926 	935
f 922 	927 	937
f 937 	920 	922
f 870 	421 	889
f 939 	178 	233
f 932 	928 	682
f 920 	937 	1094
f 890 	940 	892
f 945 	327 	557
f 945 	949 	327
f 943 	941 	948
f 942 	78 	952
f 927 	922 	921
f 942 	138 	78
f 949 	950 	329
f 940 	905 	946
f 950 	333 	329
f 162 	158 	948
f 687 	682 	928
f 1094 	937 	947
f 946 	892 	940
f 952 	863 	942
f 506 	836 	945
f 78 	885 	952
f 757 	938 	1072
f 885 	863 	952
f 633 	939 	954
f 836 	838 	945
f 1015 	1084 	947
f 944 	1072 	1207
f 838 	949 	945
f 941 	943 	966
f 842 	950 	949
f 889 	421 	953
f 1339 	863 	760
f 953 	909 	917
f 863 	775 	760
f 939 	233 	954
f 902 	494 	561
f 838 	842 	949
f 966 	943 	957
f 291 	775 	885
f 926 	957 	958
f 958 	943 	158
f 913 	950 	842
f 926 	958 	158
f 943 	958 	957
f 913 	904 	950
f 1207 	959 	944
f 953 	850 	909
f 842 	865 	913
f 789 	753 	829
f 960 	914 	913
f 960 	913 	865
f 941 	167 	948
f 941 	1011 	166
f 962 	808 	789
f 231 	954 	233
f 523 	914 	960
f 889 	899 	870
f 941 	166 	167
f 865 	877 	960
f 1206 	768 	959
f 878 	884 	783
f 1024 	965 	247
f 877 	523 	960
f 962 	789 	964
f 1127 	115 	43
f 966 	957 	840
f 934 	840 	926
f 962 	964 	963
f 963 	161 	201
f 926 	840 	957
f 961 	1180 	921
f 523 	877 	521
f 536 	562 	912
f 941 	966 	1011
f 892 	946 	969
f 912 	562 	295
f 897 	898 	973
f 895 	896 	974
f 894 	895 	977
f 963 	971 	161
f 1094 	961 	920
f 21 	970 	623
f 951 	967 	972
f 231 	951 	972
f 977 	987 	894
f 20 	973 	970
f 20 	970 	21
f 971 	235 	161
f 640 	894 	987
f 987 	999 	640
f 972 	967 	954
f 972 	954 	231
f 971 	241 	235
f 741 	886 	739
f 973 	20 	974
f 961 	921 	920
f 32 	974 	20
f 167 	162 	948
f 978 	381 	568
f 28 	977 	974
f 227 	808 	962
f 28 	974 	32
f 227 	962 	201
f 1385 	1386 	981
f 1016 	901 	1015
f 978 	1015 	901
f 170 	983 	981
f 962 	963 	201
f 18 	980 	984
f 999 	994 	640
f 994 	988 	640
f 789 	829 	964
f 984 	968 	47
f 976 	719 	975
f 984 	980 	968
f 983 	986 	981
f 27 	26 	994
f 17 	984 	47
f 979 	951 	231
f 994 	26 	988
f 17 	18 	984
f 26 	24 	989
f 170 	1005 	983
f 985 	989 	24
f 37 	35 	990
f 981 	982 	170
f 989 	988 	26
f 987 	977 	28
f 27 	987 	28
f 968 	980 	991
f 951 	992 	967
f 989 	985 	640
f 637 	640 	985
f 975 	719 	995
f 581 	582 	997
f 719 	712 	995
f 982 	441 	453
f 988 	989 	640
f 37 	990 	992
f 999 	987 	27
f 170 	982 	453
f 994 	999 	27
f 1017 	581 	997
f 1031 	968 	996
f 1014 	1001 	979
f 24 	36 	985
f 985 	36 	8
f 1003 	975 	995
f 166 	1004 	168
f 168 	1004 	1005
f 773 	1008 	712
f 1002 	1080 	980
f 1000 	992 	1001
f 1007 	644 	600
f 995 	712 	1008
f 1005 	170 	168
f 1000 	37 	992
f 995 	1008 	1003
f 58 	37 	1000
f 1010 	993 	963
f 1026 	996 	991
f 986 	983 	1005
f 1004 	986 	1005
f 963 	964 	1010
f 968 	991 	996
f 882 	1007 	881
f 963 	993 	971
f 1001 	951 	979
f 946 	976 	975
f 992 	951 	1001
f 829 	1010 	964
f 998 	993 	1010
f 1012 	237 	44
f 54 	1018 	1012
f 978 	568 	1017
f 979 	965 	1014
f 1015 	978 	1017
f 1000 	1001 	1013
f 1001 	1014 	1013
f 981 	986 	1019
f 826 	833 	1020
f 164 	76 	1013
f 44 	54 	1012
f 975 	969 	946
f 58 	1000 	1013
f 969 	975 	1003
f 1013 	76 	58
f 1141 	993 	1022
f 1021 	968 	1031
f 1022 	993 	998
f 1020 	968 	1021
f 1011 	1004 	166
f 54 	34 	1018
f 986 	1004 	1019
f 1024 	693 	659
f 908 	1022 	998
f 882 	1025 	1040
f 1023 	1018 	1006
f 1009 	1006 	1018
f 882 	924 	1025
f 1004 	1011 	1019
f 1026 	724 	915
f 1027 	1024 	662
f 780 	878 	783
f 1026 	915 	1031
f 908 	1029 	1022
f 1052 	1053 	966
f 1003 	1008 	1058
f 1028 	966 	1030
f 1055 	966 	1054
f 976 	696 	721
f 996 	1026 	1031
f 908 	918 	1029
f 858 	729 	909
f 1030 	1066 	1028
f 858 	909 	850
f 1016 	903 	893
f 837 	906 	1030
f 1011 	966 	1055
f 918 	1051 	1029
f 1035 	1036 	1037
f 714 	719 	976
f 918 	933 	1051
f 931 	884 	888
f 721 	714 	976
f 1032 	472 	1034
f 887 	1016 	893
f 954 	859 	764
f 976 	905 	886
f 1037 	1036 	749
f 976 	946 	905
f 1015 	947 	903
f 936 	783 	884
f 1009 	34 	1033
f 976 	886 	741
f 826 	1020 	827
f 1016 	1015 	903
f 741 	696 	976
f 1033 	34 	405
f 578 	1017 	568
f 1020 	833 	812
f 749 	756 	1037
f 405 	472 	1032
f 581 	1017 	578
f 965 	1024 	1256
f 1021 	827 	1020
f 472 	473 	1034
f 884 	931 	936
f 1032 	1033 	405
f 812 	883 	1020
f 1077 	1079 	1039
f 1042 	1043 	1044
f 1007 	882 	1040
f 932 	931 	857
f 1046 	1043 	1047
f 1139 	1020 	883
f 931 	888 	857
f 1043 	1049 	1047
f 177 	1039 	929
f 1025 	1056 	1040
f 774 	749 	1090
f 874 	923 	925
f 902 	561 	1050
f 868 	923 	874
f 1058 	1008 	1041
f 758 	1045 	1027
f 1025 	1115 	1056
f 932 	857 	928
f 1082 	1051 	1039
f 761 	755 	1045
f 644 	1007 	1040
f 1052 	966 	1028
f 1397 	969 	1003
f 1054 	966 	1053
f 883 	900 	1139
f 1039 	1051 	929
f 1057 	452 	1049
f 1028 	1066 	1052
f 1043 	1057 	1049
f 923 	868 	910
f 1060 	1053 	1052
f 1050 	900 	902
f 1042 	1063 	1043
f 1060 	1055 	1054
f 997 	1059 	1061
f 1053 	1060 	1054
f 1048 	1058 	1041
f 1045 	751 	1067
f 1068 	189 	138
f 1433 	1059 	816
f 1068 	138 	942
f 1061 	1059 	1433
f 1062 	780 	1065
f 1062 	878 	780
f 1118 	938 	724
f 1063 	1071 	1043
f 1059 	641 	816
f 1069 	1070 	793
f 692 	793 	1070
f 1085 	1055 	1060
f 172 	1163 	1164
f 1072 	938 	1118
f 1071 	1078 	1043
f 1075 	1070 	1069
f 1076 	1077 	1039
f 997 	1061 	1017
f 1052 	1066 	1081
f 1075 	694 	692
f 641 	1059 	997
f 692 	1070 	1075
f 906 	1081 	1066
f 997 	582 	641
f 806 	1124 	1074
f 1052 	1081 	1060
f 1172 	1079 	1077
f 1017 	1061 	1100
f 1066 	1030 	906
f 750 	1060 	738
f 1044 	1043 	1046
f 1081 	740 	1060
f 944 	757 	1072
f 1060 	740 	738
f 1101 	1097 	520
f 644 	1056 	1426
f 1101 	520 	524
f 177 	1076 	1039
f 1040 	1056 	644
f 1039 	1079 	1082
f 1064 	1074 	1220
f 1067 	1064 	1220
f 911 	740 	1081
f 1064 	804 	805
f 1223 	1078 	1071
f 911 	1081 	906
f 1064 	805 	806
f 524 	1114 	1101
f 177 	172 	1076
f 1067 	751 	807
f 1083 	1072 	1073
f 1084 	955 	956
f 1067 	807 	804
f 1060 	750 	1085
f 1067 	804 	1064
f 1064 	806 	1074
f 1086 	1043 	1087
f 1082 	1179 	1204
f 1073 	1080 	1083
f 1116 	1069 	1088
f 1091 	509 	609
f 1043 	1078 	1087
f 1091 	609 	658
f 956 	1094 	1084
f 1031 	827 	1021
f 771 	774 	1090
f 1098 	1015 	1017
f 1095 	520 	1097
f 1055 	1085 	1011
f 1096 	1104 	1099
f 1104 	1105 	1099
f 1100 	1098 	1017
f 1073 	1072 	1118
f 1099 	1175 	1146
f 1084 	1015 	1098
f 172 	1169 	1076
f 1111 	1114 	527
f 1089 	818 	861
f 1025 	924 	1115
f 1118 	1080 	1073
f 1088 	1107 	1116
f 172 	1164 	1169
f 1088 	1113 	1107
f 1112 	981 	1106
f 1106 	981 	1103
f 856 	822 	1089
f 1114 	524 	527
f 189 	1068 	1108
f 1089 	1092 	856
f 927 	1115 	924
f 1161 	358 	489
f 1161 	1119 	358
f 1118 	724 	1026
f 927 	921 	1115
f 1119 	1120 	358
f 1121 	1116 	1107
f 1119 	1122 	1120
f 1075 	1116 	1341
f 991 	1118 	1026
f 1108 	172 	189
f 727 	1112 	1106
f 1123 	1108 	1068
f 1122 	1153 	1120
f 991 	1080 	1118
f 1109 	1124 	806
f 1117 	749 	1036
f 1126 	1122 	1119
f 1080 	991 	980
f 1075 	1069 	1116
f 1117 	1036 	1035
f 1123 	1068 	1125
f 822 	815 	1089
f 783 	1095 	1097
f 1102 	1117 	1035
f 47 	968 	1127
f 956 	961 	1094
f 1153 	360 	1120
f 1068 	942 	1038
f 1134 	1106 	1035
f 43 	47 	1127
f 360 	358 	1120
f 727 	1106 	1134
f 783 	1101 	1114
f 863 	1038 	942
f 1129 	793 	1128
f 1035 	1106 	1103
f 1153 	460 	360
f 783 	1097 	1101
f 1020 	1127 	968
f 1104 	1096 	1126
f 955 	1084 	1098
f 1125 	1068 	1038
f 1103 	1102 	1035
f 1096 	1122 	1126
f 1084 	1094 	947
f 1131 	1133 	793
f 1133 	1069 	793
f 1130 	1131 	793
f 793 	1245 	1168
f 1130 	793 	1129
f 1132 	861 	866
f 1047 	460 	1046
f 1136 	1089 	861
f 1042 	1044 	1137
f 1037 	1134 	1035
f 1138 	1426 	1056
f 1147 	1143 	1127
f 1141 	1022 	1029
f 1137 	1142 	1042
f 1056 	1115 	1138
f 1134 	1037 	756
f 884 	878 	1091
f 756 	754 	1134
f 1143 	529 	202
f 1091 	658 	884
f 202 	196 	1143
f 1138 	1167 	1265
f 1131 	1130 	1088
f 1140 	241 	971
f 1117 	1102 	1144
f 1142 	1137 	1096
f 1131 	1088 	1133
f 1136 	1199 	1089
f 971 	993 	1141
f 1142 	1063 	1042
f 1146 	1063 	1142
f 64 	1145 	1432
f 1096 	1099 	1142
f 971 	1141 	1140
f 1136 	861 	1132
f 1061 	1145 	1150
f 1099 	1146 	1142
f 1150 	1100 	1061
f 1146 	1071 	1063
f 1205 	1149 	1151
f 1138 	1115 	1167
f 749 	1117 	1090
f 63 	1145 	64
f 509 	1091 	1152
f 1020 	1147 	1127
f 1011 	1085 	1178
f 1137 	1122 	1096
f 1020 	1139 	1147
f 1102 	1103 	981
f 1144 	1102 	981
f 1129 	1128 	1151
f 1137 	1153 	1122
f 1144 	981 	1019
f 1151 	1149 	1129
f 1220 	1074 	1124
f 1137 	1044 	1153
f 1141 	1029 	1051
f 1148 	1129 	1149
f 900 	1050 	1139
f 1294 	1296 	1152
f 1141 	1204 	1140
f 1088 	1130 	1148
f 1141 	1051 	1082
f 956 	955 	1180
f 1148 	1113 	1088
f 1127 	1143 	196
f 1393 	1152 	1392
f 1088 	1069 	1133
f 1154 	1157 	1173
f 1148 	1130 	1129
f 460 	1153 	1046
f 604 	1089 	815
f 1143 	1147 	1139
f 1153 	1044 	1046
f 1125 	1038 	1135
f 1132 	1199 	1136
f 1104 	1006 	1105
f 1155 	771 	1090
f 489 	1012 	1161
f 1139 	1050 	1143
f 1117 	1155 	1090
f 956 	1180 	961
f 955 	1162 	1154
f 1156 	1155 	1117
f 1135 	1158 	1159
f 604 	818 	1089
f 1156 	1117 	1144
f 1303 	1199 	1132
f 1018 	1161 	1012
f 1121 	1176 	1158
f 1132 	1287 	1303
f 1018 	1023 	1161
f 769 	1156 	766
f 1158 	1341 	1121
f 1023 	1119 	1161
f 771 	1155 	1156
f 1158 	1135 	1341
f 1098 	1162 	955
f 1126 	1119 	1023
f 1126 	1023 	1104
f 1006 	1104 	1023
f 1157 	1154 	1162
f 1321 	1160 	1323
f 1166 	576 	584
f 1336 	1323 	1160
f 776 	1156 	1165
f 1154 	1173 	1180
f 1128 	793 	1168
f 1230 	1171 	1234
f 776 	766 	1156
f 1170 	1174 	1228
f 1099 	1105 	1175
f 1172 	1077 	1219
f 1160 	1342 	1336
f 955 	1154 	1180
f 1160 	1403 	1400
f 1105 	1177 	1175
f 1178 	1165 	1011
f 1405 	1406 	1160
f 750 	1165 	1085
f 1160 	1406 	1342
f 1105 	1312 	1177
f 1400 	1405 	1160
f 1165 	1178 	1085
f 1202 	1174 	1183
f 1180 	1173 	1167
f 1093 	1354 	1110
f 1185 	1182 	1181
f 1177 	1186 	1184
f 1156 	1144 	1019
f 1162 	1235 	1157
f 1170 	1183 	1174
f 1156 	1019 	1165
f 1011 	1165 	1019
f 1182 	1159 	1176
f 1082 	1079 	1172
f 1182 	1176 	1181
f 1187 	307 	290
f 1082 	1172 	1179
f 1177 	1184 	1175
f 1170 	1166 	584
f 1314 	1317 	1186
f 1191 	1185 	1181
f 921 	1180 	1167
f 1170 	584 	591
f 1190 	1192 	1187
f 1199 	1092 	1089
f 592 	1182 	1185
f 1170 	591 	1183
f 1192 	324 	307
f 1192 	1203 	324
f 1186 	1177 	1314
f 1167 	1173 	1218
f 1076 	1169 	1219
f 1192 	307 	1187
f 1194 	1186 	1196
f 921 	1167 	1115
f 1219 	1077 	1076
f 1183 	591 	583
f 1183 	583 	1193
f 1111 	527 	1188
f 1197 	1201 	1190
f 1160 	1111 	1188
f 1201 	1203 	1192
f 1188 	1189 	1160
f 1113 	1148 	1198
f 1162 	1098 	1100
f 1186 	1194 	1184
f 1202 	1183 	1193
f 1403 	1160 	1399
f 1200 	1206 	1193
f 1338 	1209 	1196
f 1206 	1202 	1193
f 1162 	1100 	1211
f 1201 	1192 	1190
f 1181 	1176 	1198
f 1303 	1195 	1199
f 1205 	1217 	1181
f 1205 	1181 	1198
f 1395 	1152 	1393
f 1334 	1335 	1201
f 1093 	1092 	1195
f 1197 	1334 	1201
f 1207 	1174 	1202
f 1195 	1092 	1199
f 1141 	1082 	1204
f 1198 	1148 	1149
f 1195 	1354 	1093
f 1198 	1149 	1205
f 1207 	1202 	959
f 1208 	551 	1232
f 959 	1202 	1206
f 1189 	1188 	1216
f 1181 	1217 	1191
f 1205 	1168 	1217
f 1210 	341 	330
f 1167 	1218 	1215
f 1188 	527 	1216
f 330 	1203 	1210
f 1151 	1168 	1205
f 1151 	1128 	1168
f 539 	1216 	527
f 1217 	1168 	1171
f 1158 	1176 	1159
f 1313 	1304 	1222
f 1163 	172 	1212
f 1206 	1200 	768
f 1208 	564 	551
f 1105 	1006 	1312
f 1173 	1313 	1222
f 1223 	1071 	1146
f 1108 	1212 	172
f 1262 	140 	198
f 1107 	1113 	1198
f 1146 	1175 	1223
f 1198 	1176 	1107
f 828 	1200 	1193
f 1225 	140 	1262
f 1175 	1184 	1223
f 1176 	1121 	1107
f 1225 	142 	140
f 1295 	1027 	1045
f 1184 	1194 	1223
f 1225 	1226 	142
f 1173 	1157 	1313
f 576 	1166 	1242
f 1220 	238 	1295
f 1078 	1223 	1227
f 589 	1135 	1159
f 1080 	1228 	1083
f 1194 	1244 	1227
f 1233 	1168 	1245
f 1234 	1168 	1233
f 1228 	1174 	1083
f 1220 	1295 	1045
f 1194 	1196 	1244
f 1235 	1162 	1229
f 1174 	1207 	1083
f 1220 	1045 	1067
f 1237 	1152 	1379
f 1194 	1227 	1223
f 1083 	1207 	1072
f 1244 	1252 	1227
f 1002 	1228 	1080
f 1228 	1166 	1170
f 40 	1239 	1230
f 551 	1237 	1232
f 1228 	1242 	1166
f 1236 	1226 	1225
f 1238 	1230 	1239
f 1286 	1086 	1240
f 1002 	1242 	1228
f 1222 	1218 	1173
f 1234 	41 	1230
f 1236 	1241 	1226
f 1086 	1087 	1240
f 1241 	290 	280
f 1234 	9 	41
f 1222 	1304 	1218
f 1230 	41 	40
f 1241 	280 	1226
f 1286 	1316 	1086
f 1221 	1108 	1123
f 967 	1132 	866
f 1242 	232 	191
f 1214 	1212 	1108
f 1252 	1240 	1227
f 1232 	1231 	1208
f 1243 	1187 	1241
f 509 	1152 	1237
f 1240 	1087 	1227
f 1237 	551 	509
f 1187 	290 	1241
f 954 	764 	633
f 1087 	1078 	1227
f 9 	1234 	1233
f 1221 	1214 	1108
f 1213 	1162 	1211
f 1002 	232 	1242
f 1209 	1244 	1196
f 794 	396 	1247
f 1243 	1241 	1236
f 1213 	1229 	1162
f 967 	866 	954
f 1216 	1248 	1189
f 1250 	627 	1249
f 1246 	628 	1250
f 404 	1246 	403
f 1247 	403 	1246
f 859 	954 	866
f 243 	165 	1253
f 1233 	1245 	1254
f 655 	546 	526
f 1283 	1190 	1243
f 696 	1251 	1255
f 821 	9 	1254
f 1247 	1246 	768
f 1190 	1187 	1243
f 1244 	1209 	1252
f 1233 	1254 	9
f 1246 	1250 	768
f 1256 	1253 	164
f 1399 	1160 	1189
f 821 	1254 	1245
f 1209 	1257 	1252
f 768 	1200 	1247
f 1224 	1231 	1396
f 828 	1193 	583
f 1230 	1238 	1171
f 1224 	1208 	1231
f 198 	1258 	1262
f 1261 	990 	186
f 967 	1261 	1264
f 1238 	1306 	1260
f 1168 	1234 	1171
f 1260 	1171 	1238
f 1200 	828 	1247
f 1263 	696 	1255
f 186 	1287 	1264
f 1216 	1224 	1248
f 1169 	1164 	1263
f 1249 	636 	655
f 1214 	1270 	1212
f 1163 	1212 	1270
f 592 	1185 	1191
f 220 	1258 	181
f 1214 	1221 	1270
f 1287 	1132 	967
f 1272 	1160 	1271
f 1270 	657 	624
f 1310 	1309 	1258
f 1167 	1215 	1265
f 1273 	563 	1191
f 1179 	1172 	1274
f 1309 	1275 	1258
f 1250 	1249 	646
f 1275 	1262 	1258
f 1273 	1191 	1269
f 828 	794 	1247
f 1275 	1236 	1225
f 631 	1179 	1274
f 75 	46 	1265
f 1276 	1043 	1277
f 1265 	1415 	75
f 35 	186 	990
f 1013 	1014 	1256
f 1275 	1225 	1262
f 1274 	1251 	631
f 1014 	965 	1256
f 1240 	1267 	1266
f 1275 	1279 	1236
f 1273 	1284 	571
f 1279 	1243 	1236
f 1013 	1256 	164
f 565 	1273 	571
f 1057 	1280 	357
f 1160 	1272 	1111
f 631 	1251 	741
f 1145 	63 	1278
f 1171 	1260 	1269
f 1278 	1150 	1145
f 1065 	1114 	1111
f 1057 	1043 	1280
f 1282 	1283 	1279
f 1191 	1217 	1269
f 1278 	1100 	1150
f 1280 	364 	357
f 1269 	1217 	1171
f 780 	1114 	1065
f 1253 	1256 	1024
f 1284 	1273 	1269
f 1024 	1027 	1253
f 1278 	63 	1418
f 1280 	1285 	364
f 1272 	1065 	1111
f 1286 	1240 	1266
f 1283 	1243 	1279
f 1043 	1285 	1280
f 1284 	1260 	1259
f 1100 	1278 	1211
f 1281 	1286 	1266
f 1279 	1308 	1282
f 631 	1288 	1179
f 1285 	1289 	379
f 1211 	1346 	1347
f 783 	1114 	780
f 1259 	571 	1284
f 1043 	1289 	1285
f 1283 	1282 	1197
f 1091 	878 	1062
f 1288 	664 	1140
f 1284 	1269 	1260
f 1190 	1283 	1197
f 1062 	1292 	1091
f 1292 	1152 	1091
f 1140 	1204 	1288
f 1213 	1211 	1347
f 1290 	1286 	1281
f 1264 	1287 	967
f 1204 	1179 	1288
f 1152 	1292 	1294
f 1259 	782 	571
f 1043 	1291 	1277
f 1270 	625 	1263
f 1310 	220 	1297
f 1300 	1301 	1309
f 1270 	624 	625
f 1306 	1298 	1260
f 1253 	1027 	1295
f 1297 	219 	176
f 93 	176 	219
f 1263 	1164 	1270
f 1307 	1308 	1302
f 1286 	1290 	1440
f 176 	175 	1300
f 176 	1300 	1297
f 1163 	1270 	1164
f 1265 	1215 	1293
f 1289 	1043 	1276
f 1112 	1384 	981
f 175 	174 	1301
f 175 	1301 	1300
f 1294 	1292 	1268
f 462 	463 	1387
f 463 	439 	1387
f 439 	440 	1387
f 1271 	1268 	1292
f 1298 	48 	1299
f 174 	173 	1302
f 174 	1302 	1301
f 1274 	1172 	1255
f 1274 	1255 	1251
f 50 	1238 	1239
f 1304 	1293 	1215
f 1306 	1238 	50
f 1218 	1304 	1215
f 1319 	1305 	1043
f 50 	1239 	40
f 1219 	1255 	1172
f 173 	438 	1302
f 1252 	1257 	1267
f 1272 	1062 	1065
f 1240 	1252 	1267
f 1270 	1221 	657
f 1309 	1310 	1300
f 1308 	1309 	1301
f 1297 	1300 	1310
f 219 	1297 	220
f 220 	221 	219
f 1301 	1302 	1308
f 1272 	1292 	1062
f 1311 	1043 	1305
f 1272 	1271 	1292
f 1310 	1258 	220
f 1259 	1260 	1298
f 1177 	1312 	1314
f 1315 	48 	1298
f 1315 	1306 	56
f 1033 	1032 	1314
f 1303 	1354 	1195
f 1291 	1043 	1311
f 1219 	1169 	1263
f 1309 	1308 	1275
f 1312 	1033 	1314
f 1315 	1298 	1306
f 1308 	1279 	1275
f 1354 	1109 	1110
f 48 	1315 	56
f 1308 	1307 	1282
f 1219 	1263 	1255
f 1086 	1316 	1043
f 1365 	1368 	1124
f 1307 	1387 	1282
f 1318 	1135 	522
f 1306 	50 	56
f 522 	657 	1318
f 1043 	1316 	1319
f 1268 	1160 	1321
f 1318 	1221 	1123
f 1160 	1268 	1271
f 1322 	1385 	727
f 1318 	1125 	1135
f 1317 	1032 	1034
f 1324 	1325 	372
f 1325 	1326 	372
f 1326 	1327 	372
f 371 	372 	1327
f 1328 	1331 	1327
f 1329 	1330 	1328
f 1331 	1328 	1330
f 1332 	1327 	1331
f 371 	1327 	1332
f 1333 	1322 	727
f 1320 	1369 	1313
f 1322 	1334 	1197
f 1320 	1313 	1157
f 473 	1409 	1034
f 1325 	1324 	57
f 657 	1221 	1318
f 1317 	1314 	1032
f 1325 	57 	61
f 1326 	1325 	61
f 1123 	1125 	1318
f 1277 	1337 	1276
f 1326 	61 	65
f 1196 	1317 	1338
f 1229 	1213 	1347
f 788 	1339 	760
f 1327 	1326 	65
f 1268 	1321 	1294
f 1340 	1276 	1337
f 1327 	65 	68
f 1328 	1327 	68
f 1329 	1328 	68
f 1339 	788 	1075
f 1329 	68 	71
f 1346 	1211 	1278
f 1337 	1363 	1340
f 1330 	1329 	71
f 1287 	1359 	1303
f 1210 	1203 	1335
f 226 	230 	1287
f 1317 	1196 	1186
f 1034 	1338 	1317
f 1343 	1291 	1344
f 1203 	1201 	1335
f 1321 	1296 	1294
f 1116 	1121 	1341
f 1359 	1287 	3
f 1332 	1331 	110
f 1282 	1322 	1197
f 1341 	1345 	1339
f 1338 	1034 	1398
f 230 	3 	1287
f 1210 	1335 	1349
f 1312 	1009 	1033
f 371 	1332 	110
f 1336 	1351 	1323
f 1369 	1304 	1313
f 71 	74 	1330
f 1339 	1075 	1341
f 1295 	248 	243
f 1330 	74 	1331
f 74 	110 	1331
f 1402 	1209 	1338
f 1253 	1295 	243
f 1345 	863 	1339
f 1387 	1322 	1282
f 1342 	1351 	1336
f 1347 	1346 	261
f 1299 	1259 	1298
f 31 	1259 	1355
f 1387 	1386 	1322
f 81 	1348 	82
f 1295 	238 	248
f 1337 	1277 	1343
f 1333 	1334 	1322
f 1348 	31 	1355
f 1345 	1341 	1135
f 261 	269 	1347
f 1348 	1350 	82
f 1333 	1349 	1335
f 1277 	1291 	1343
f 269 	305 	1347
f 1345 	1135 	1038
f 1312 	1006 	1009
f 1352 	30 	1348
f 1152 	1296 	1351
f 1357 	1210 	1349
f 1345 	1038 	863
f 81 	80 	1352
f 81 	1352 	1348
f 1370 	29 	1352
f 417 	379 	1340
f 1392 	1152 	1351
f 1346 	1278 	1418
f 1261 	992 	990
f 80 	1370 	1352
f 967 	992 	1261
f 1296 	1323 	1351
f 1340 	379 	1289
f 83 	1299 	48
f 1419 	1346 	1418
f 730 	735 	1390
f 1289 	1276 	1340
f 1355 	1259 	1299
f 1419 	261 	1346
f 1333 	1335 	1334
f 359 	730 	1353
f 83 	1355 	1299
f 1350 	1355 	82
f 1323 	1296 	1321
f 1357 	155 	341
f 1356 	359 	1353
f 1344 	1291 	1311
f 1361 	1293 	1358
f 1355 	83 	82
f 1363 	1364 	1340
f 1303 	1359 	1354
f 1356 	1362 	359
f 1357 	341 	1210
f 1348 	1355 	1350
f 1365 	1109 	1354
f 1266 	1267 	1366
f 1293 	1369 	1358
f 417 	1340 	1364
f 1354 	1404 	1365
f 80 	92 	1370
f 1124 	1109 	1365
f 249 	1369 	297
f 1363 	1371 	1364
f 872 	1367 	23
f 1266 	1366 	1360
f 214 	1370 	96
f 92 	96 	1370
f 1369 	305 	297
f 359 	1362 	1367
f 1375 	372 	428
f 1376 	372 	1375
f 1324 	372 	1376
f 431 	430 	85
f 1374 	1124 	1368
f 1379 	1231 	1232
f 428 	431 	85
f 1358 	1369 	249
f 710 	155 	1357
f 1375 	428 	85
f 1281 	1266 	1360
f 1379 	1232 	1237
f 1376 	1375 	85
f 1380 	1382 	1383
f 1374 	427 	1381
f 1376 	85 	90
f 1369 	1293 	1304
f 90 	1324 	1376
f 1302 	438 	1307
f 1387 	1307 	438
f 438 	462 	1387
f 1360 	1373 	1281
f 1374 	1220 	1124
f 1324 	90 	57
f 727 	1384 	1112
f 1396 	1231 	1379
f 1388 	1390 	1380
f 735 	1380 	1390
f 892 	1391 	899
f 12 	22 	1382
f 1347 	1369 	1320
f 1386 	1385 	1322
f 1342 	1392 	1351
f 7 	12 	1377
f 434 	1409 	473
f 1389 	1290 	1373
f 1363 	1378 	1372
f 1220 	1381 	6
f 1337 	1378 	1363
f 1385 	1384 	727
f 1290 	1281 	1373
f 1371 	1363 	1372
f 1220 	1374 	1381
f 1157 	1347 	1320
f 22 	1383 	1382
f 1379 	1152 	1395
f 1427 	395 	1371
f 238 	1220 	6
f 1379 	1403 	1396
f 434 	899 	1391
f 284 	251 	1389
f 1379 	1395 	1403
f 1391 	1397 	1394
f 395 	1364 	1371
f 251 	1290 	1389
f 1383 	22 	1388
f 1397 	10 	1394
f 12 	1382 	1377
f 251 	1440 	1290
f 969 	1397 	1391
f 1337 	1343 	1411
f 1382 	1380 	1377
f 1404 	1354 	1359
f 1267 	1257 	1366
f 892 	969 	1391
f 1235 	1347 	1157
f 417 	1364 	395
f 10 	19 	1394
f 1235 	1229 	1347
f 19 	53 	1394
f 1248 	1399 	1189
f 459 	1374 	1368
f 1410 	434 	1391
f 735 	747 	1380
f 1338 	1398 	1402
f 1378 	1401 	1372
f 1398 	1407 	1402
f 1003 	1058 	1397
f 1409 	49 	1407
f 459 	1368 	1404
f 1388 	1380 	1383
f 1397 	1058 	1048
f 782 	1397 	1048
f 1398 	1409 	1407
f 305 	1369 	1347
f 1361 	1358 	249
f 1402 	1408 	1257
f 22 	1353 	1388
f 1408 	1407 	1412
f 1368 	1365 	1404
f 1398 	1034 	1409
f 1404 	16 	459
f 1411 	1401 	1378
f 1406 	1405 	1395
f 1209 	1402 	1257
f 1378 	1337 	1411
f 3 	16 	1404
f 1395 	1405 	1400
f 1344 	1413 	1343
f 1344 	1414 	1413
f 1353 	730 	1390
f 1409 	434 	1410
f 427 	1374 	459
f 38 	1416 	1414
f 1407 	1408 	1402
f 437 	75 	1415
f 1412 	1407 	49
f 3 	1404 	1359
f 1414 	1416 	1413
f 49 	60 	1412
f 1415 	246 	437
f 1388 	1353 	1390
f 1399 	1396 	1403
f 38 	1429 	1416
f 1399 	1224 	1396
f 1356 	1353 	22
f 38 	135 	1429
f 1293 	1415 	1265
f 1248 	1224 	1399
f 1361 	1415 	1293
f 22 	1362 	1356
f 249 	246 	1415
f 1410 	49 	1409
f 249 	1415 	1361
f 1393 	1392 	1342
f 1342 	1406 	1393
f 1401 	1413 	1416
f 49 	1410 	53
f 885 	1377 	742
f 1417 	1412 	60
f 1413 	1401 	1411
f 1411 	1343 	1413
f 1417 	60 	87
f 1394 	53 	1410
f 1394 	1410 	1391
f 1400 	1403 	1395
f 1344 	59 	1414
f 23 	1367 	1362
f 1406 	1395 	1393
f 163 	19 	29
f 1420 	67 	72
f 1366 	1257 	1408
f 190 	1421 	199
f 1418 	112 	1419
f 19 	10 	29
f 87 	121 	1422
f 334 	1419 	112
f 190 	188 	1421
f 72 	1423 	1420
f 1397 	31 	10
f 1422 	1417 	87
f 1401 	199 	1372
f 1259 	31 	1397
f 1417 	1424 	1425
f 1397 	782 	1259
f 334 	261 	1419
f 1420 	1423 	12
f 199 	1421 	1372
f 1366 	1408 	1425
f 1423 	23 	12
f 1412 	1417 	1425
f 1427 	1371 	1421
f 1371 	1372 	1421
f 1422 	1424 	1417
f 23 	22 	12
f 1426 	1138 	1428
f 1425 	1424 	1360
f 1428 	13 	1426
f 425 	395 	1427
f 7 	67 	1420
f 1425 	1360 	1366
f 13 	197 	1426
f 69 	67 	7
f 1430 	1422 	121
f 12 	7 	1420
f 7 	78 	69
f 128 	1430 	121
f 1265 	46 	1428
f 1429 	199 	1416
f 1431 	1424 	1422
f 46 	13 	1428
f 1401 	1416 	199
f 1265 	1428 	1138
f 55 	1432 	143
f 1431 	1422 	1430
f 1431 	1373 	1424
f 1316 	1286 	1434
f 1424 	1373 	1360
f 1434 	1319 	1316
f 1430 	128 	1436
f 1434 	1437 	1319
f 1437 	1305 	1319
f 142 	1436 	128
f 1436 	1438 	1430
f 1431 	1430 	1438
f 800 	839 	1435
f 33 	1439 	1437
f 1389 	1373 	1431
f 1439 	1305 	1437
f 1438 	1389 	1431
f 1439 	1311 	1305
f 1432 	1433 	800
f 1226 	280 	1436
f 117 	1439 	33
f 1145 	1433 	1432
f 1344 	1439 	59
f 1061 	1433 	1145
f 142 	1226 	1436
f 1344 	1311 	1439
f 1432 	800 	1435
f 117 	59 	1439
f 280 	1438 	1436
f 1432 	1435 	143
f 284 	1389 	1438
f 55 	64 	1432
f 1412 	1425 	1408
f 1286 	1440 	1434
f 254 	1441 	1440
f 1441 	1434 	1440
f 260 	1441 	254
f 260 	1442 	1441
f 1442 	1434 	1441
f 260 	15 	1442
f 15 	1434 	1442
f 15 	1437 	1434
# 2880 faces

 #end of obj_0

