# Object Export From Tinkercad Server 2015

mtllib obj.mtl

o obj_0
v 10 		-10 		50
v 10 		10 		50
v 10 		-10 		0
v 10 		10 		0
v -10 		10 		50
v -10 		10 		0
v -10 		-10 		0
v -10 		-10 		50
v -0.148 		-10 		40.083
v -0.458 		-10 		40.188
v -0.751 		-10 		40.333
v -1.023 		-10 		40.515
v -1.27 		-10 		40.73
v -1.485 		-10 		40.977
v -1.667 		-10 		41.249
v -1.812 		-10 		41.542
v -1.917 		-10 		41.852
v -1.981 		-10 		42.173
v -2.003 		-10 		42.5
v -1.981 		-10 		42.827
v -1.917 		-10 		43.148
v -1.812 		-10 		43.458
v -1.667 		-10 		43.751
v -1.917 		10 		41.852
v -1.812 		10 		41.542
v -1.485 		-10 		44.023
v -1.981 		10 		42.173
v -1.27 		-10 		44.27
v -2.003 		10 		42.5
v -1.023 		-10 		44.485
v -1.981 		10 		42.827
v -0.751 		-10 		44.667
v -0.458 		-10 		44.812
v -1.917 		10 		43.148
v -0.148 		-10 		44.917
v -1.812 		10 		43.458
v -1.667 		10 		43.751
v -1.485 		10 		44.023
v 0.5 		-10 		39.998
v 0.173 		-10 		40.019
v -1.27 		10 		44.27
v -1.023 		10 		44.485
v -0.751 		10 		44.667
v 2.27 		-10 		40.73
v -0.458 		10 		44.812
v 2.023 		-10 		40.515
v -0.148 		10 		44.917
v 1.751 		-10 		40.333
v 1.458 		-10 		40.188
v 0.173 		10 		40.019
v 0.5 		10 		39.998
v 1.148 		-10 		40.083
v 0.827 		-10 		40.019
v 2.27 		10 		40.73
v 2.023 		10 		40.515
v 2.981 		-10 		42.827
v 3.003 		-10 		42.5
v 1.751 		10 		40.333
v 2.981 		-10 		42.173
v 1.458 		10 		40.188
v 2.917 		-10 		41.852
v 1.148 		10 		40.083
v 2.812 		-10 		41.542
v 0.827 		10 		40.019
v 2.667 		-10 		41.249
v 2.485 		-10 		40.977
v 2.981 		10 		42.827
v 3.003 		10 		42.5
v 2.981 		10 		42.173
v 0.173 		-10 		44.981
v 2.917 		10 		41.852
v 2.812 		10 		41.542
v 0.5 		-10 		45.003
v 2.667 		10 		41.249
v 0.827 		-10 		44.981
v 2.485 		10 		40.977
v 1.148 		-10 		44.917
v 1.458 		-10 		44.812
v 0.173 		10 		44.981
v 0.5 		10 		45.003
v 1.751 		-10 		44.667
v 0.827 		10 		44.981
v 2.023 		-10 		44.485
v 1.148 		10 		44.917
v 2.27 		-10 		44.27
v 1.458 		10 		44.812
v 2.485 		-10 		44.023
v 1.751 		10 		44.667
v 2.667 		-10 		43.751
v 2.023 		10 		44.485
v 2.812 		-10 		43.458
v 2.27 		10 		44.27
v 2.917 		-10 		43.148
v 2.485 		10 		44.023
v 2.667 		10 		43.751
v 2.812 		10 		43.458
v 2.917 		10 		43.148
v -0.148 		10 		40.083
v -0.458 		10 		40.188
v -0.751 		10 		40.333
v -1.023 		10 		40.515
v -1.27 		10 		40.73
v -1.485 		10 		40.977
v -1.667 		10 		41.249
# 104 vertices

g group_0_15277357

usemtl color_15277357
s 0

f 1 	3 	2
f 2 	3 	4
f 5 	6 	7
f 5 	7 	8
f 1 	5 	8
f 2 	5 	1
f 4 	3 	7
f 4 	7 	6
f 12 	7 	11
f 14 	7 	13
f 13 	7 	12
f 16 	17 	7
f 8 	7 	17
f 15 	7 	14
f 18 	8 	17
f 19 	8 	18
f 28 	8 	26
f 25 	6 	24
f 27 	24 	5
f 30 	8 	28
f 23 	26 	8
f 32 	8 	30
f 35 	8 	33
f 9 	7 	40
f 37 	5 	38
f 42 	41 	5
f 41 	38 	5
f 46 	3 	44
f 42 	5 	43
f 45 	5 	47
f 48 	3 	46
f 52 	3 	49
f 4 	6 	51
f 54 	76 	4
f 55 	54 	4
f 58 	55 	4
f 60 	58 	4
f 65 	3 	63
f 62 	60 	4
f 64 	62 	4
f 66 	3 	65
f 44 	3 	66
f 73 	8 	70
f 71 	4 	72
f 76 	74 	4
f 81 	1 	78
f 47 	5 	79
f 77 	78 	1
f 84 	2 	86
f 87 	1 	85
f 91 	1 	89
f 92 	2 	94
f 35 	70 	8
f 75 	1 	73
f 77 	1 	75
f 8 	73 	1
f 83 	1 	81
f 83 	85 	1
f 87 	89 	1
f 93 	1 	91
f 97 	2 	67
f 95 	2 	96
f 1 	93 	56
f 1 	56 	57
f 1 	57 	59
f 1 	59 	61
f 63 	3 	61
f 1 	61 	3
f 48 	49 	3
f 53 	3 	52
f 3 	53 	39
f 40 	7 	39
f 10 	7 	9
f 11 	7 	10
f 3 	39 	7
f 15 	16 	7
f 8 	19 	20
f 20 	21 	8
f 8 	21 	22
f 23 	8 	22
f 32 	33 	8
f 100 	99 	6
f 101 	100 	6
f 104 	103 	6
f 103 	102 	6
f 102 	101 	6
f 92 	90 	2
f 88 	2 	90
f 88 	86 	2
f 82 	2 	84
f 82 	80 	2
f 5 	2 	80
f 80 	79 	5
f 74 	72 	4
f 2 	4 	71
f 2 	71 	69
f 2 	69 	68
f 68 	67 	2
f 97 	96 	2
f 95 	94 	2
f 99 	98 	6
f 98 	50 	6
f 50 	51 	6
f 51 	64 	4
f 45 	43 	5
f 37 	36 	5
f 36 	34 	5
f 34 	31 	5
f 5 	31 	29
f 29 	27 	5
f 5 	24 	6
f 104 	6 	25
f 11 	100 	12
f 13 	12 	102
f 101 	102 	12
f 22 	36 	37
f 26 	37 	38
f 25 	16 	15
f 26 	38 	41
f 18 	24 	27
f 27 	19 	18
f 39 	51 	40
f 62 	52 	60
f 64 	53 	62
f 52 	62 	53
f 64 	51 	53
f 39 	53 	51
f 11 	99 	100
f 101 	12 	100
f 69 	71 	59
f 57 	68 	59
f 71 	72 	61
f 61 	72 	63
f 61 	59 	71
f 63 	72 	65
f 54 	44 	66
f 76 	54 	66
f 77 	84 	78
f 80 	82 	73
f 81 	78 	86
f 77 	75 	84
f 92 	85 	83
f 81 	86 	88
f 92 	87 	85
f 88 	83 	81
f 95 	89 	87
f 10 	9 	99
f 98 	99 	9
f 95 	96 	89
f 10 	99 	11
f 91 	96 	93
f 103 	14 	13
f 97 	67 	93
f 93 	67 	56
f 57 	56 	68
f 67 	68 	56
f 69 	59 	68
f 65 	74 	66
f 70 	35 	79
f 79 	80 	70
f 41 	28 	26
f 82 	84 	75
f 41 	30 	28
f 86 	78 	84
f 90 	83 	88
f 45 	35 	33
f 92 	83 	90
f 47 	79 	35
f 13 	102 	103
f 103 	15 	14
f 25 	24 	16
f 17 	16 	24
f 18 	17 	24
f 31 	20 	19
f 31 	34 	20
f 21 	20 	34
f 34 	22 	21
f 37 	23 	22
f 23 	37 	26
f 45 	33 	32
f 47 	35 	45
f 98 	9 	40
f 54 	46 	44
f 60 	49 	48
f 49 	60 	52
f 15 	103 	104
f 25 	15 	104
f 19 	27 	29
f 31 	19 	29
f 22 	34 	36
f 42 	30 	41
f 30 	42 	32
f 43 	32 	42
f 43 	45 	32
f 50 	40 	51
f 50 	98 	40
f 54 	55 	46
f 48 	46 	58
f 55 	58 	46
f 48 	58 	60
f 65 	72 	74
f 76 	66 	74
f 73 	70 	80
f 75 	73 	82
f 94 	87 	92
f 95 	87 	94
f 91 	89 	96
f 97 	93 	96
# 208 faces

 #end of obj_0

