# Object Export From Tinkercad Server 2015

mtllib obj.mtl

o obj_0
v -49 		-12 		10
v -49 		-12 		0
v -49 		-22 		0
v -49 		-22 		10
v -41 		-12 		10
v -41 		-12 		0
v -38.5 		-12 		2.5
v -38.826 		-12 		2.521
v -41 		-12 		5
v 101 		-22 		10
v 101 		-22 		0
v 101 		-12 		0
v 101 		-12 		10
v -40.828 		-12 		4.096
v -40.81 		-12 		4.043
v -40.665 		-12 		3.75
v -40.483 		-12 		3.478
v -40.268 		-12 		3.232
v -40.022 		-12 		3.017
v -39.75 		-12 		2.835
v -39.457 		-12 		2.69
v -36 		-12 		5
v -37.543 		8 		2.69
v -37.853 		8 		2.585
v -37.25 		8 		2.835
v -39.147 		-12 		2.585
v -36.978 		8 		3.017
v -38.912 		-12 		2.5381
v -36.021 		-12 		4.674
v -36.085 		-12 		4.353
v -38.826 		8 		2.521
v -36.021 		-12 		5.326
v -36.732 		8 		6.768
v -36.517 		8 		6.522
v -36.335 		8 		6.25
v -38.5 		8 		2.5
v -36.19 		8 		5.957
v -36.085 		8 		5.647
v -36.021 		8 		5.326
v -36 		8 		5
v -36.021 		8 		4.674
v -36.085 		8 		4.353
v -36.085 		-12 		5.647
v -40.81 		8 		4.043
v -36.19 		-12 		5.957
v -38.826 		8 		7.479
v -40.665 		8 		3.75
v -38.5 		8 		7.5
v -38.174 		8 		7.479
v -37.853 		8 		7.415
v -37.543 		8 		7.31
v -37.25 		8 		7.165
v -36.978 		8 		6.983
v -40.483 		8 		3.478
v -40.268 		8 		3.232
v -40.022 		8 		3.017
v -40.915 		8 		5.647
v -39.75 		8 		2.835
v -40.81 		8 		5.957
v -40.665 		8 		6.25
v -40.483 		8 		6.522
v -40.268 		8 		6.768
v -40.022 		8 		6.983
v -39.75 		8 		7.165
v -39.457 		8 		7.31
v -39.147 		8 		7.415
v -39.457 		8 		2.69
v -40.915 		8 		4.353
v -40.979 		8 		4.674
v -41 		8 		5
v -40.979 		8 		5.326
v -39.147 		8 		2.585
v -36.19 		8 		4.043
v -36.335 		8 		3.75
v -36.517 		8 		3.478
v -36.732 		8 		3.232
v -38.174 		8 		2.521
v -36.335 		-12 		6.25
v -36.517 		-12 		6.522
v -36.732 		-12 		6.768
v -36.864 		-12 		6.8834
v -36.978 		-12 		6.983
v -37.25 		-12 		7.165
v -37.543 		-12 		7.31
v -37.853 		-12 		7.415
v -38.174 		-12 		7.479
v -38.5 		-12 		7.5
v -38.826 		-12 		7.479
v -38.912 		-12 		7.4619
v -39.147 		-12 		7.415
v -39.457 		-12 		7.31
v -39.75 		-12 		7.165
v -40.022 		-12 		6.983
v -40.268 		-12 		6.768
v -40.483 		-12 		6.522
v -40.665 		-12 		6.25
v -40.81 		-12 		5.957
v -40.915 		-12 		5.647
v -40.96 		-12 		5.4213
v -40.915 		-12 		4.353
v -40.96 		-12 		4.5787
v -40.979 		-12 		5.326
v -40.979 		-12 		4.674
v -36.732 		-12 		3.232
v -36.864 		-12 		3.1166
v -36.517 		-12 		3.478
v -36.335 		-12 		3.75
v -36.19 		-12 		4.043
v -36.172 		-12 		4.096
v -38.174 		-12 		2.521
v -37.853 		-12 		2.585
v -37.543 		-12 		2.69
v -37.25 		-12 		2.835
v -36.978 		-12 		3.017
# 114 vertices

g group_0_16768282

usemtl color_16768282
s 0

f 1 	2 	3
f 1 	3 	4
f 5 	1 	4
f 3 	2 	6
f 6 	2 	9
f 2 	1 	9
f 5 	9 	1
f 10 	11 	12
f 10 	12 	13
f 4 	10 	5
f 13 	5 	10
f 15 	16 	6
f 11 	3 	6
f 11 	6 	12
f 11 	10 	3
f 4 	3 	10
f 16 	17 	6
f 17 	18 	6
f 18 	19 	6
f 19 	20 	6
f 7 	110 	6
f 20 	21 	6
f 21 	26 	6
f 106 	107 	12
f 13 	12 	22
f 22 	32 	13
f 28 	6 	26
f 14 	15 	6
f 37 	38 	35
f 34 	35 	38
f 38 	39 	34
f 39 	40 	34
f 33 	34 	40
f 41 	53 	40
f 42 	53 	41
f 42 	73 	50
f 51 	42 	50
f 49 	50 	24
f 52 	42 	51
f 53 	42 	52
f 33 	40 	53
f 48 	49 	24
f 77 	36 	48
f 60 	61 	70
f 69 	70 	61
f 62 	69 	61
f 63 	69 	62
f 64 	69 	63
f 65 	69 	64
f 66 	69 	65
f 44 	68 	66
f 68 	69 	66
f 59 	60 	70
f 71 	57 	70
f 57 	59 	70
f 74 	50 	73
f 75 	50 	74
f 76 	50 	75
f 27 	50 	76
f 25 	50 	27
f 23 	50 	25
f 24 	50 	23
f 77 	48 	24
f 46 	48 	36
f 31 	66 	36
f 66 	46 	36
f 66 	31 	72
f 66 	72 	67
f 66 	67 	58
f 66 	58 	56
f 66 	56 	55
f 66 	55 	54
f 66 	54 	47
f 66 	47 	44
f 80 	33 	81
f 16 	44 	47
f 16 	47 	54
f 33 	53 	81
f 53 	52 	82
f 30 	109 	42
f 30 	42 	29
f 41 	29 	42
f 40 	22 	29
f 40 	29 	41
f 90 	89 	66
f 22 	40 	32
f 39 	32 	40
f 65 	91 	66
f 38 	43 	32
f 38 	32 	39
f 43 	38 	45
f 37 	45 	38
f 35 	78 	45
f 35 	45 	37
f 92 	64 	93
f 78 	35 	79
f 34 	79 	35
f 33 	80 	79
f 33 	79 	34
f 82 	81 	53
f 100 	68 	14
f 90 	66 	91
f 92 	91 	64
f 65 	64 	91
f 63 	93 	64
f 93 	63 	94
f 62 	94 	63
f 62 	61 	94
f 95 	94 	61
f 95 	61 	60
f 88 	46 	89
f 97 	60 	59
f 59 	57 	97
f 71 	99 	57
f 83 	82 	52
f 84 	83 	51
f 52 	51 	83
f 84 	51 	85
f 50 	85 	51
f 85 	50 	86
f 49 	86 	50
f 49 	48 	86
f 87 	86 	48
f 88 	87 	46
f 48 	46 	87
f 98 	57 	99
f 46 	66 	89
f 103 	69 	101
f 104 	76 	106
f 75 	74 	106
f 107 	74 	108
f 109 	108 	73
f 73 	42 	109
f 36 	77 	7
f 60 	96 	95
f 96 	60 	97
f 57 	98 	97
f 112 	23 	113
f 25 	27 	113
f 114 	27 	105
f 15 	14 	44
f 102 	99 	71
f 102 	71 	9
f 9 	70 	103
f 44 	16 	15
f 69 	68 	101
f 104 	105 	76
f 76 	105 	27
f 75 	106 	76
f 107 	106 	74
f 73 	108 	74
f 110 	7 	77
f 77 	24 	111
f 77 	111 	110
f 112 	111 	23
f 24 	23 	111
f 25 	113 	23
f 114 	113 	27
f 7 	31 	36
f 26 	72 	28
f 8 	31 	7
f 13 	84 	5
f 85 	86 	5
f 87 	88 	5
f 89 	90 	5
f 16 	54 	17
f 12 	109 	30
f 17 	54 	18
f 55 	18 	54
f 29 	12 	30
f 22 	12 	29
f 55 	56 	18
f 19 	18 	56
f 32 	43 	13
f 43 	45 	13
f 45 	78 	13
f 58 	20 	19
f 58 	19 	56
f 78 	79 	13
f 20 	58 	21
f 67 	21 	58
f 79 	80 	13
f 67 	72 	21
f 26 	21 	72
f 80 	81 	13
f 8 	28 	31
f 31 	28 	72
f 81 	82 	13
f 83 	13 	82
f 83 	84 	13
f 85 	5 	84
f 87 	5 	86
f 89 	5 	88
f 90 	91 	5
f 91 	92 	5
f 92 	93 	5
f 93 	94 	5
f 94 	95 	5
f 95 	96 	5
f 96 	97 	5
f 98 	5 	97
f 6 	100 	14
f 101 	100 	6
f 102 	9 	5
f 98 	99 	5
f 102 	5 	99
f 6 	9 	103
f 101 	6 	103
f 105 	104 	12
f 113 	114 	12
f 106 	12 	104
f 107 	108 	12
f 108 	109 	12
f 110 	111 	6
f 111 	112 	6
f 12 	6 	112
f 112 	113 	12
f 105 	12 	114
f 8 	6 	28
f 7 	6 	8
f 44 	14 	68
f 70 	9 	71
f 70 	69 	103
f 100 	101 	68
# 224 faces

 #end of obj_0

